<?xml version="1.0" standalone="no"?>
<!DOCTYPE svg PUBLIC "-//W3C//DTD SVG 1.1//EN" "http://www.w3.org/Graphics/SVG/1.1/DTD/svg11.dtd" >
<svg xmlns="http://www.w3.org/2000/svg" xmlns:xlink="http://www.w3.org/1999/xlink" version="1.1">
<metadata>
Created by FontForge 20170924 at Mon Feb 14 13:58:38 2005
 By www-data
Font software Copyright 2002 Adobe Systems Incorporated. Typeface designs Copyright 2002 The Monotype Corporation. All rights reserved. "Plate Gothic" is a trademark of The Monotype Corporation in the United States and/or other countries; "MT" is a trademark of Monotype Imaging, Inc. Registered in U.S. Patent and Trademark Office and may be registered in certain other jurisdictions.
</metadata>
<defs>
<font id="PlateGtThreeFourMTStd" horiz-adv-x="458" >
  <font-face 
    font-family="Plate Gt Three Four MT Std"
    font-weight="500"
    font-stretch="normal"
    units-per-em="1000"
    panose-1="2 2 5 4 2 5 3 2 2 4"
    ascent="695"
    descent="-305"
    x-height="362"
    cap-height="479"
    bbox="-44 -211 1050 712"
    underline-thickness="50"
    underline-position="-100"
    stemh="9"
    stemv="9"
    unicode-range="U+0020-FB02"
  />
<missing-glyph horiz-adv-x="500" 
d="M12 0v665h475v-665h-475zM88 618l162 -243l161 243h-323zM60 575v-484c0 -1 161 242 161 242zM440 575l-162 -242l162 -243v485zM411 48l-161 242l-162 -242h323z" />
    <glyph glyph-name="fi" unicode="fi" horiz-adv-x="708" 
d="M49 353v9h361c7 0 12 7 15 24h9v-99h-9c-3 17 -8 24 -15 24h-264v-105h165c8 0 12 7 16 24h9v-99h-9c-4 17 -8 24 -16 24h-165v-130c0 -7 7 -12 24 -16v-9h-121v9c17 4 24 9 24 16v314c0 8 -7 10 -24 14zM644 362v-9c-17 -4 -24 -8 -24 -16v-312c0 -7 7 -12 24 -16v-9
h-121v9c18 4 24 9 24 16v312c0 8 -7 12 -24 16v9h121z" />
    <glyph glyph-name="fl" unicode="fl" horiz-adv-x="916" 
d="M49 353v9h361c7 0 12 7 15 24h9v-99h-9c-3 17 -8 24 -15 24h-264v-105h165c8 0 12 7 16 24h9v-99h-9c-4 17 -8 24 -16 24h-165v-130c0 -7 7 -12 24 -16v-9h-121v9c17 4 24 9 24 16v314c0 8 -7 10 -24 14zM862 0h-353v9c17 3 24 8 24 15v314c0 7 -7 11 -24 15v9h121v-9
c-17 -4 -24 -8 -24 -15v-287h256c8 0 12 7 16 24h9v-99h-9c-4 17 -8 24 -16 24z" />
    <glyph glyph-name=".notdef" horiz-adv-x="500" 
d="M12 0v665h475v-665h-475zM88 618l162 -243l161 243h-323zM60 575v-484c0 -1 161 242 161 242zM440 575l-162 -242l162 -243v485zM411 48l-161 242l-162 -242h323z" />
    <glyph glyph-name="space" unicode=" " horiz-adv-x="203" 
 />
    <glyph glyph-name="exclam" unicode="!" horiz-adv-x="250" 
d="M55 470v9h141v-9c-20 -4 -22 -3 -24 -19l-35 -292c0 -7 4 -12 25 -19v-9h-72v9c18 6 23 11 22 19l-33 295c-1 9 -7 12 -24 16zM77 38c0 28 22 50 50 50s50 -22 50 -50s-22 -50 -50 -50s-50 22 -50 50z" />
    <glyph glyph-name="quotedbl" unicode="&#x22;" horiz-adv-x="246" 
d="M221 633c-3 -65 -6 -132 -8 -197h-58c-2 65 -5 132 -7 197h73zM97 633c-2 -65 -5 -130 -7 -197h-58c-2 67 -5 132 -7 197h72z" />
    <glyph glyph-name="numbersign" unicode="#" horiz-adv-x="474" 
d="M454 456c-3 -16 -5 -31 -8 -47h-96c-9 -46 -17 -93 -25 -140h100c-3 -15 -5 -30 -7 -46h-100c-10 -58 -20 -114 -30 -170h-56c10 56 21 112 30 170h-93c-10 -58 -20 -114 -30 -170h-54c9 56 20 112 29 170h-94c2 16 5 31 7 46h94c9 47 17 94 25 140h-97c2 16 5 31 7 47
h97c10 58 20 114 31 173h55c-11 -59 -20 -115 -31 -173h94c10 58 20 114 30 173h56c-11 -59 -20 -115 -31 -173h97zM295 409h-94c-9 -46 -16 -93 -25 -140h93c9 47 17 94 26 140z" />
    <glyph glyph-name="dollar" unicode="$" horiz-adv-x="406" 
d="M161 474v45h25v-42c7 1 16 2 25 2s15 -1 25 -2v42h25v-47c42 -6 82 -33 90 -33s12 6 15 12l8 -4l-43 -89l-9 4c3 5 5 10 5 16c0 8 -26 30 -66 39v-147c82 -30 115 -69 115 -139c0 -104 -87 -132 -115 -138v-82h-25v78c-14 -2 -34 -2 -50 0v-78h-25v81
c-62 7 -94 33 -106 33c-7 0 -11 -4 -16 -14l-10 3l37 93l9 -3c-2 -20 5 -40 86 -57v179c-79 27 -111 59 -111 122c0 75 54 112 111 126zM161 297v121c-49 -13 -53 -52 -53 -61c0 -27 12 -47 53 -60zM236 277v146c-10 2 -19 3 -24 3c-6 0 -20 -1 -26 -3v-132zM261 200v-150
c26 4 57 36 57 74c0 37 -18 59 -57 76zM236 44v163c-20 4 -30 7 -50 13v-177c16 -3 38 -3 50 1z" />
    <glyph glyph-name="percent" unicode="%" horiz-adv-x="760" 
d="M180 438c-42 0 -75 -33 -75 -77s32 -77 74 -77c41 0 73 33 73 76c0 42 -33 78 -72 78zM173 491c86 0 144 -51 144 -128c0 -76 -58 -132 -138 -132s-139 54 -139 129c0 72 60 131 133 131zM185 -37l327 528h72l-327 -528h-72zM584 170c-42 0 -75 -33 -75 -77
s32 -77 74 -77c41 0 73 33 73 76c0 42 -33 78 -72 78zM577 223c86 0 144 -51 144 -128c0 -76 -58 -132 -138 -132s-139 54 -139 129c0 72 60 131 133 131z" />
    <glyph glyph-name="ampersand" unicode="&#x26;" horiz-adv-x="656" 
d="M281 419c-54 0 -85 -25 -85 -59c0 -33 31 -60 78 -60s83 27 83 60s-36 59 -76 59zM386 130c-35 69 -72 94 -133 94c-87 0 -117 -48 -117 -85c0 -45 41 -84 116 -84c62 0 98 27 134 75zM601 -14h-9c-5 19 -10 20 -34 20s-77 -1 -129 58c-64 -59 -104 -76 -182 -76
c-139 0 -195 76 -195 153c0 64 36 105 113 131c-39 32 -53 58 -53 93c0 79 79 126 168 126c91 0 161 -53 161 -122c0 -41 -23 -74 -71 -104c32 -18 48 -35 67 -71c48 71 78 100 132 125c12 5 17 9 18 26h9v-138h-9c-6 15 -10 19 -17 19c-20 0 -51 -33 -93 -95
c24 -32 51 -46 84 -46c22 0 30 7 31 25h9v-124z" />
    <glyph glyph-name="quoteright" unicode="&#x2019;" horiz-adv-x="250" 
d="M118 312l-10 8c18 28 26 50 26 77c-9 0 -4 -1 -21 -1s-39 11 -39 44c0 28 22 51 50 51c30 0 53 -28 53 -63c0 -37 -15 -66 -59 -116z" />
    <glyph glyph-name="parenleft" unicode="(" horiz-adv-x="302" 
d="M134 482v9h132v-9c-63 -17 -128 -127 -128 -245c0 -127 79 -230 129 -240v-9h-132v9c7 3 12 7 13 11c-68 107 -91 164 -91 231c0 68 25 126 94 233c-4 4 -9 7 -17 10z" />
    <glyph glyph-name="parenright" unicode=")" horiz-adv-x="302" 
d="M168 482c-8 -3 -13 -6 -17 -10c69 -107 94 -165 94 -233c0 -67 -23 -124 -91 -231c1 -4 6 -8 13 -11v-9h-132v9c50 10 129 113 129 240c0 118 -65 228 -128 245v9h132v-9z" />
    <glyph glyph-name="asterisk" unicode="*" horiz-adv-x="406" 
d="M149 482v9h109v-9c-9 0 -16 -4 -19 -12l-27 -98l12 -8l84 56c6 4 7 12 4 21l10 3l32 -102l-8 -2c-4 9 -7 12 -12 11l-106 -3l-5 -14l81 -65c2 -1 4 -2 8 -2s4 1 9 4l5 -6l-82 -62l-6 6c8 9 9 12 7 21l-35 95h-13l-34 -97c-2 -9 -2 -10 8 -19l-5 -6l-87 62l4 6
c4 -3 7 -4 11 -4s6 1 8 2l81 65l-4 14l-104 3c-8 0 -11 -1 -15 -11l-8 2l33 102l8 -3c-2 -8 -2 -16 5 -21l86 -56l11 8l-27 98c-2 9 -5 11 -19 12z" />
    <glyph glyph-name="plus" unicode="+" horiz-adv-x="557" 
d="M476 264h-164v-184h-66v184h-165v60h165v185h66v-185h164v-60z" />
    <glyph glyph-name="comma" unicode="," horiz-adv-x="250" 
d="M118 -91l-10 8c18 28 26 50 26 77c-9 0 -4 -1 -21 -1s-39 11 -39 44c0 28 22 51 50 51c30 0 53 -28 53 -63c0 -37 -15 -66 -59 -116z" />
    <glyph glyph-name="hyphen" unicode="-" horiz-adv-x="354" 
d="M51 129v74h252v-74h-252z" />
    <glyph glyph-name="period" unicode="." horiz-adv-x="250" 
d="M125 88c28 0 50 -22 50 -50s-22 -50 -50 -50s-50 22 -50 50s22 50 50 50z" />
    <glyph glyph-name="slash" unicode="/" horiz-adv-x="302" 
d="M51 -12l131 503h63l-131 -503h-63z" />
    <glyph glyph-name="zero" unicode="0" horiz-adv-x="406" 
d="M206 429c-68 0 -102 -65 -102 -194c0 -124 33 -184 99 -184c67 0 99 60 99 185c0 128 -33 193 -96 193zM198 491c111 0 181 -97 181 -253c0 -149 -70 -250 -171 -250c-107 0 -181 100 -181 254c0 148 71 249 171 249z" />
    <glyph glyph-name="one" unicode="1" horiz-adv-x="406" 
d="M174 25v332c-6 -4 -12 -6 -20 -8c-29 -7 -37 -11 -40 -28h-9v103h9c2 -12 7 -18 14 -18c23 0 46 20 46 40c0 11 -7 22 -22 24v9h113v-9c-15 -3 -24 -8 -24 -15v-432c0 -8 7 -13 23 -14v-9h-114v9c15 3 24 9 24 16z" />
    <glyph glyph-name="two" unicode="2" horiz-adv-x="406" 
d="M368 -24h-9c-3 17 -8 24 -16 24h-279c-11 0 -15 -6 -18 -24h-9c7 132 61 191 153 254c68 46 87 73 87 115c0 47 -33 83 -78 83c-70 0 -104 -66 -104 -67c0 -5 3 -13 8 -20l-7 -6l-71 74l7 6c1 0 1 0 2 -1c5 -5 10 -8 15 -8s11 5 21 17c29 35 68 68 132 68
c84 0 147 -60 147 -139c0 -84 -57 -123 -117 -163l-12 -8c-57 -38 -90 -73 -107 -118h233c7 0 11 9 13 24h9v-111z" />
    <glyph glyph-name="three" unicode="3" horiz-adv-x="406" 
d="M157 307h9c5 -23 7 -24 27 -24c53 0 92 25 92 74c0 34 -26 76 -86 76c-52 0 -88 -42 -88 -55c0 -3 3 -9 10 -20l-7 -5l-78 78l6 5c7 -6 13 -9 17 -9c13 0 51 64 153 64c81 0 140 -55 140 -131c0 -45 -17 -72 -62 -103c56 -33 78 -68 78 -120c0 -85 -69 -149 -161 -149
s-130 53 -151 53c-4 0 -11 -5 -18 -13l-7 4l54 93l7 -3c-1 -3 -5 -15 -5 -17c0 -14 57 -57 120 -57c53 0 94 39 94 90c0 57 -43 87 -104 87c-21 0 -28 -5 -31 -24h-9v106z" />
    <glyph glyph-name="four" unicode="4" horiz-adv-x="406" 
d="M254 142v252l-158 -252h158zM317 450v-308h26c7 0 12 12 13 24h9v-103h-9c-3 17 -8 24 -21 24h-18v-65c0 -5 7 -8 24 -13v-9h-111v9c15 3 24 9 24 17v61h-207c-8 0 -12 -7 -16 -24h-9v65l210 333c2 4 -10 6 -25 9v9h134v-9c-14 -5 -24 -10 -24 -20z" />
    <glyph glyph-name="five" unicode="5" horiz-adv-x="406" 
d="M40 470v9h283c9 0 13 5 15 24h9v-111h-9c-1 16 -6 24 -13 24h-195v-109c32 16 56 22 85 22c80 0 153 -57 153 -162c0 -93 -68 -179 -171 -179c-95 0 -141 69 -152 69c-1 0 -16 -7 -17 -8l-6 6l73 79l7 -5c-5 -8 -8 -15 -8 -18c0 -9 40 -63 102 -63c60 0 100 45 100 111
c0 67 -38 110 -97 110c-45 0 -72 -24 -72 -32c0 -5 4 -13 8 -20l-7 -6l-94 69l6 7c9 -2 13 -2 17 -2c5 0 7 1 7 6v156c0 17 -4 21 -24 23z" />
    <glyph glyph-name="six" unicode="6" horiz-adv-x="406" 
d="M217 247c-65 0 -96 -48 -96 -98c0 -57 42 -103 95 -103c50 0 86 41 86 98c0 52 -28 103 -85 103zM324 369l-9 4c2 5 4 12 4 17c0 12 -47 43 -87 43c-38 0 -113 -25 -113 -165c27 22 61 42 106 42c83 0 149 -72 149 -160c0 -92 -69 -162 -159 -162
c-118 0 -176 115 -176 243c0 156 77 260 198 260c76 0 110 -42 118 -42c4 0 10 5 15 10l8 -3z" />
    <glyph glyph-name="seven" unicode="7" horiz-adv-x="406" 
d="M31 503h9c5 -19 8 -24 17 -24h292c5 0 10 11 12 24h9v-69l-179 -407l-3 -9c1 -6 4 -7 22 -9v-9h-125v9c17 0 22 1 30 19l178 385h-239c-7 0 -11 -3 -14 -24h-9v114z" />
    <glyph glyph-name="eight" unicode="8" horiz-adv-x="406" 
d="M204 433c-53 0 -81 -36 -81 -77c0 -44 36 -76 81 -76s78 29 78 76c0 41 -34 77 -78 77zM204 218c-75 0 -96 -53 -96 -83c0 -45 37 -89 96 -89c60 0 93 49 93 89c0 49 -46 83 -93 83zM115 254c-45 29 -64 60 -64 104c0 61 50 133 153 133c87 0 150 -54 150 -132
c0 -45 -20 -77 -63 -106c49 -29 79 -60 79 -118c0 -76 -60 -147 -166 -147s-169 76 -169 145c0 54 29 90 80 121z" />
    <glyph glyph-name="nine" unicode="9" horiz-adv-x="406" 
d="M189 232c61 0 96 43 96 98c0 62 -46 103 -95 103c-54 0 -86 -46 -86 -98c0 -55 31 -103 85 -103zM82 110l9 -4c-2 -5 -4 -12 -4 -17c0 -12 47 -43 87 -43c38 0 113 25 113 165c-27 -22 -61 -42 -106 -42c-83 0 -149 72 -149 160c0 92 69 162 159 162
c118 0 176 -115 176 -243c0 -156 -77 -260 -198 -260c-76 0 -110 42 -118 42c-4 0 -10 -5 -15 -10l-8 3z" />
    <glyph glyph-name="colon" unicode=":" horiz-adv-x="250" 
d="M125 88c28 0 50 -22 50 -50s-22 -50 -50 -50s-50 22 -50 50s22 50 50 50zM125 329c28 0 50 -22 50 -50s-22 -50 -50 -50s-50 22 -50 50s22 50 50 50z" />
    <glyph glyph-name="semicolon" unicode=";" horiz-adv-x="250" 
d="M118 -91l-10 8c18 28 26 50 26 77c-9 0 -4 -1 -21 -1s-39 11 -39 44c0 28 22 51 50 51c30 0 53 -28 53 -63c0 -37 -15 -66 -59 -116zM125 329c28 0 50 -22 50 -50s-22 -50 -50 -50s-50 22 -50 50s22 50 50 50z" />
    <glyph glyph-name="less" unicode="&#x3c;" horiz-adv-x="557" 
d="M471 85l-386 185v43l386 186v-67l-298 -140v-2l298 -140v-65z" />
    <glyph glyph-name="equal" unicode="=" horiz-adv-x="557" 
d="M476 370h-395v60h395v-60zM476 157h-395v60h395v-60z" />
    <glyph glyph-name="greater" unicode="&#x3e;" horiz-adv-x="557" 
d="M471 270l-386 -186v66l298 140v2l-298 140v66l386 -185v-43z" />
    <glyph glyph-name="question" unicode="?" horiz-adv-x="406" 
d="M164 38c0 28 22 50 50 50s50 -22 50 -50s-22 -50 -50 -50s-50 22 -50 50zM120 349l-77 75l6 7c7 -5 13 -9 19 -9c7 0 46 69 146 69c78 0 136 -53 136 -126c0 -41 -15 -74 -55 -112c-42 -39 -56 -69 -56 -95c0 -13 6 -14 27 -18v-9h-113v9c17 3 21 5 24 13
c0 51 10 79 47 120s51 65 51 91c0 27 -23 60 -71 60c-51 0 -88 -38 -88 -49c0 -3 5 -13 11 -21z" />
    <glyph glyph-name="at" unicode="@" horiz-adv-x="746" 
d="M685 323c0 -144 -55 -242 -143 -242c-57 0 -87 38 -92 98h-2c-25 -68 -62 -98 -108 -98c-67 0 -121 60 -121 167c0 125 58 228 156 228c43 0 71 -27 79 -56h2c1 13 2 35 3 49h61c-2 -28 -18 -224 -18 -254c0 -46 8 -87 41 -87c49 0 76 81 76 188c0 149 -73 277 -241 277
c-138 0 -253 -142 -253 -328c0 -181 102 -299 254 -299c56 0 101 10 145 29c7 -14 13 -29 20 -41c-52 -27 -103 -37 -172 -37c-200 0 -312 151 -312 348c0 216 143 375 323 375c189 0 302 -135 302 -317zM446 329c0 67 -25 99 -62 99c-69 0 -100 -87 -100 -179
c0 -76 25 -119 68 -119c67 0 94 93 94 199z" />
    <glyph glyph-name="A" unicode="A" horiz-adv-x="552" 
d="M354 197l-77 192l-81 -192h158zM206 470v9h150v-9c-9 -2 -16 -3 -24 -8l178 -434c5 -12 11 -19 29 -19v-9h-134v9c12 0 17 3 23 10l-44 106h-219l-48 -111c8 -4 14 -5 24 -5v-9h-128v9c17 0 20 1 27 7l190 446c-6 5 -13 7 -24 8z" />
    <glyph glyph-name="B" unicode="B" horiz-adv-x="552" 
d="M339 407h-175v-122h171c39 0 80 14 80 61c0 48 -34 61 -76 61zM339 213h-175v-141h170c21 0 91 -3 91 67c0 49 -35 74 -86 74zM56 470v9h287c110 0 160 -64 160 -125c0 -46 -21 -75 -73 -103c62 -31 86 -64 86 -117c0 -103 -97 -134 -166 -134h-294v9c19 3 24 7 24 16
v429c0 9 -5 12 -24 16z" />
    <glyph glyph-name="C" unicode="C" horiz-adv-x="552" 
d="M542 79l-10 -6c-8 8 -13 11 -18 11c-6 0 -14 -5 -27 -17c-55 -50 -120 -79 -189 -79c-166 0 -258 118 -258 250c0 150 106 253 258 253c60 0 121 -17 177 -48c12 -7 19 -10 23 -10s8 4 17 14l10 -5l-68 -109l-9 4c3 6 5 13 5 20c0 11 -65 62 -150 62
c-101 0 -172 -74 -172 -179c0 -102 70 -180 163 -180c86 0 175 76 175 95c0 6 -4 11 -10 19l8 6z" />
    <glyph glyph-name="D" unicode="D" horiz-adv-x="604" 
d="M328 407h-164v-335h156c104 0 154 56 154 173c0 103 -52 162 -146 162zM56 470v9h281c137 0 225 -82 225 -237c0 -156 -85 -242 -240 -242h-266v9c19 3 24 7 24 16v429c0 9 -5 12 -24 16z" />
    <glyph glyph-name="E" unicode="E" horiz-adv-x="510" 
d="M446 407h-273v-126h175c9 0 14 7 16 23h9v-120h-9c-1 19 -6 25 -20 25h-171v-137h281c8 0 11 5 16 24h9v-120h-9c-2 15 -8 24 -16 24h-389v9c19 4 24 7 24 16v429c0 9 -5 12 -24 16v9h391c7 0 9 8 12 16c1 2 0 4 2 8h9v-120h-9c-4 20 -7 24 -24 24z" />
    <glyph glyph-name="F" unicode="F" horiz-adv-x="510" 
d="M453 407h-280v-127h182c7 0 10 9 15 24h9v-120h-9c-4 18 -10 24 -21 24h-176v-183c0 -9 5 -12 24 -16v-9h-132v9c19 3 24 7 24 16v429c0 9 -5 12 -24 16v9h398c9 0 13 14 15 24h10v-120h-10c-5 21 -12 24 -25 24z" />
    <glyph glyph-name="G" unicode="G" horiz-adv-x="656" 
d="M331 273h9c4 -20 9 -25 24 -25h241v-9c-20 -3 -24 -7 -24 -23v-113c0 -16 3 -19 24 -23v-9c-117 -60 -187 -83 -270 -83c-175 0 -297 105 -297 252c0 150 124 251 304 251c135 0 197 -43 211 -43c5 0 12 9 17 18l8 -4l-55 -110l-8 3c2 7 3 16 3 20c0 21 -93 51 -170 51
c-130 0 -219 -76 -219 -187c0 -110 82 -179 215 -179c52 0 87 7 153 37v79h-136c-13 0 -17 -4 -21 -24h-9v121z" />
    <glyph glyph-name="H" unicode="H" horiz-adv-x="656" 
d="M169 283h318v171c0 9 -5 12 -24 16v9h132v-9c-18 -4 -24 -7 -24 -16v-429c0 -9 5 -12 24 -16v-9h-132v9c18 3 24 7 24 16v186h-318v-186c0 -9 5 -12 24 -16v-9h-132v9c19 3 24 7 24 16v429c0 9 -5 12 -24 16v9h132v-9c-19 -4 -24 -7 -24 -16v-171z" />
    <glyph glyph-name="I" unicode="I" horiz-adv-x="302" 
d="M217 479v-9c-18 -3 -24 -7 -24 -16v-430c0 -8 5 -12 24 -15v-9h-132v9c18 3 24 6 24 15v430c0 9 -5 12 -24 16v9h132z" />
    <glyph glyph-name="J" unicode="J" horiz-adv-x="406" 
d="M340 479v-9c-19 -4 -24 -7 -24 -16v-327c0 -107 -84 -139 -149 -139c-62 0 -114 28 -128 28c-6 0 -11 -5 -17 -14l-9 2l46 109l9 -3c-1 -4 -1 -9 -1 -13c0 -18 36 -37 96 -37c52 0 69 35 69 75v319c0 9 -5 12 -24 16v9h132z" />
    <glyph glyph-name="K" unicode="K" horiz-adv-x="656" 
d="M202 479v-9c-18 -3 -24 -7 -24 -16v-206l291 211c-4 5 -12 10 -23 11v9h188v-9c-17 -1 -31 -6 -50 -19l-224 -158l241 -270c9 -11 13 -13 32 -14v-9h-156v9c8 0 15 1 23 5l-207 231l-115 -83v-137c0 -9 5 -12 24 -16v-9h-132v9c19 3 24 7 24 16v429c0 9 -5 12 -24 16v9
h132z" />
    <glyph glyph-name="L" unicode="L" horiz-adv-x="510" 
d="M199 479v-9c-19 -4 -24 -7 -24 -16v-382h278c9 0 14 8 16 24h9v-120h-9c-6 20 -8 24 -18 24h-384v9c19 3 24 7 24 16v429c0 9 -5 12 -24 16v9h132z" />
    <glyph glyph-name="M" unicode="M" horiz-adv-x="760" 
d="M233 479v-9c-12 -2 -19 -4 -24 -8l170 -307l176 307c-7 5 -12 6 -24 8v9h154v-9c-19 -4 -24 -7 -24 -16v-429c0 -9 5 -12 24 -16v-9h-132v9c19 4 24 7 24 16v336l-203 -362l-203 365v-339c0 -9 5 -12 24 -16v-9h-121v9c19 4 24 7 24 16v429c0 9 -5 12 -24 16v9h159z" />
    <glyph glyph-name="N" unicode="N" horiz-adv-x="604" 
d="M412 0v9c20 3 21 4 23 8l-279 348v-339c0 -9 6 -13 24 -17v-9h-121v9c19 4 24 7 24 16v429c0 9 -5 12 -24 16v9h147v-9c-13 0 -19 -2 -22 -6l264 -332v322c0 9 -4 12 -24 16v9h121v-9c-19 -4 -24 -7 -24 -16v-429c0 -9 5 -12 24 -16v-9h-133z" />
    <glyph glyph-name="O" unicode="O" horiz-adv-x="604" 
d="M302 419c-121 0 -179 -74 -179 -179s58 -180 179 -180s179 75 179 180s-58 179 -179 179zM302 491c181 0 270 -126 270 -251s-89 -252 -270 -252s-270 127 -270 252s89 251 270 251z" />
    <glyph glyph-name="P" unicode="P" horiz-adv-x="510" 
d="M310 407h-140v-133h141c52 0 87 15 87 66c0 43 -32 67 -88 67zM324 202h-154v-177c0 -9 5 -12 24 -16v-9h-132v9c19 3 24 7 24 16v428c0 9 -3 11 -24 17v9h269c89 0 155 -49 155 -135c0 -70 -49 -142 -162 -142z" />
    <glyph glyph-name="Q" unicode="Q" horiz-adv-x="604" 
d="M229 116l-8 8c33 25 54 32 89 32c43 0 73 -11 127 -45c29 30 44 78 44 128c0 113 -67 180 -179 180c-111 0 -179 -68 -179 -179c0 -107 60 -180 178 -180c26 0 55 4 76 12c-58 42 -83 54 -111 54c-12 0 -25 -4 -37 -10zM503 -60l-7 5c4 5 6 12 6 17c0 8 -9 14 -26 26
c-10 7 -17 12 -39 29c-51 -22 -84 -29 -132 -29c-169 0 -273 110 -273 253c0 147 113 250 270 250c185 0 270 -136 270 -251c0 -66 -23 -126 -71 -177c40 -30 44 -32 48 -32s11 4 17 10l8 -4z" />
    <glyph glyph-name="R" unicode="R" horiz-adv-x="604" 
d="M405 407h-236v-133h236c38 0 79 14 78 66c-1 44 -32 67 -78 67zM348 202h-179v-177c0 -9 5 -12 24 -16v-9h-132v9c18 3 24 7 24 16v429c0 9 -5 12 -24 16v9h352c123 0 158 -86 158 -138c0 -60 -35 -121 -131 -134l115 -174c10 -15 16 -23 32 -24v-9h-137v9
c13 2 20 5 20 11c0 2 -1 3 -2 5z" />
    <glyph glyph-name="S" unicode="S" horiz-adv-x="510" 
d="M423 349l-9 4c2 6 3 10 3 15c0 18 -96 51 -174 51c-77 0 -129 -28 -129 -69c0 -48 60 -54 164 -61c146 -10 202 -54 202 -153c0 -77 -75 -148 -211 -148c-60 0 -123 13 -189 39c-14 5 -24 8 -27 8c-6 0 -12 -5 -20 -17l-9 4l52 112l9 -3c-2 -6 -2 -8 -2 -15
c0 -16 81 -56 185 -56c88 0 128 33 128 77c0 49 -47 62 -147 68c-159 9 -219 51 -219 134c0 89 83 152 215 152c59 0 127 -14 183 -37c7 -3 14 -6 16 -6c5 0 12 7 16 14l9 -3z" />
    <glyph glyph-name="T" unicode="T" horiz-adv-x="510" 
d="M458 407h-161v-382c0 -9 5 -12 24 -16v-9h-132v9c19 3 24 7 24 16v382h-163c-9 0 -12 -5 -16 -24h-9v120h9c4 -18 7 -24 16 -24h410c9 0 12 5 16 24h9v-120h-9c-4 17 -8 24 -18 24z" />
    <glyph glyph-name="U" unicode="U" horiz-adv-x="604" 
d="M542 479v-9c-19 -4 -24 -7 -24 -16v-289c0 -125 -60 -176 -216 -176s-217 51 -217 176v289c0 9 -5 12 -24 16v9h132v-9c-18 -3 -24 -7 -24 -16v-288c0 -70 20 -105 133 -105s132 35 132 104v289c0 9 -5 12 -24 16v9h132z" />
    <glyph glyph-name="V" unicode="V" horiz-adv-x="552" 
d="M281 90l156 369c1 4 -14 9 -24 11v9h126v-9c-18 -4 -23 -6 -26 -15l-185 -438c5 -8 12 -8 22 -8v-9h-150v9c15 0 22 3 22 8l-2 8l-177 428c-6 15 -8 15 -31 17v9h139v-9c-23 -6 -22 -8 -22 -12z" />
    <glyph glyph-name="W" unicode="W" horiz-adv-x="760" 
d="M457 479v-9c-11 -1 -19 -4 -24 -9l106 -335l107 329c2 10 2 11 -21 15v9h122v-9c-16 -3 -23 -6 -24 -11l-145 -443c9 -5 15 -6 22 -7v-9h-131v9c9 3 15 5 19 9l-106 335l-109 -336c5 -4 11 -5 22 -8v-9h-137v9c16 5 22 6 22 13l-138 436c-3 8 -8 10 -28 12v9h138v-9
c-24 -7 -24 -8 -23 -15l104 -328l109 334c-5 5 -9 7 -24 9v9h139z" />
    <glyph glyph-name="X" unicode="X" horiz-adv-x="656" 
d="M193 462l132 -150l130 150c2 2 -3 8 -18 8v9h141v-9c-18 -1 -26 -7 -44 -27l-161 -182l213 -238c11 -13 12 -14 36 -14v-9h-160v9c14 1 21 4 21 9c0 2 -1 3 -2 4l-161 178l-158 -179c-1 -2 -2 -3 -2 -4c0 -5 6 -7 22 -8v-9h-149v9c19 0 27 3 46 25l194 220l-187 207
c-9 9 -22 9 -29 9v9h156v-9c-15 0 -22 -6 -20 -8z" />
    <glyph glyph-name="Y" unicode="Y" horiz-adv-x="604" 
d="M533 442l-192 -248v-169c0 -9 5 -12 24 -16v-9h-132v9c19 4 24 7 24 16v171l-195 263c-4 6 -7 7 -31 11v9h161v-9c-23 -2 -32 -8 -30 -12l143 -192l151 194c1 6 -12 9 -23 10v9h140v-9c-22 -5 -24 -7 -40 -28z" />
    <glyph glyph-name="Z" unicode="Z" horiz-adv-x="510" 
d="M44 383v120h9c7 -21 7 -24 27 -24h406l-314 -407h281c11 0 15 6 18 24h9v-120h-9c-7 19 -10 24 -20 24h-432l310 407h-256c-14 0 -19 -8 -20 -24h-9z" />
    <glyph glyph-name="bracketleft" unicode="[" horiz-adv-x="302" 
d="M114 421v-363h124c8 0 15 3 19 18h9v-94h-9c-2 15 -8 18 -12 18h-219v9c14 3 19 9 19 22v410c0 18 -3 25 -19 29v9h217c11 0 10 8 13 18h9v-94h-9c-1 14 -1 18 -18 18h-124z" />
    <glyph glyph-name="backslash" unicode="\" horiz-adv-x="302" 
d="M114 491l131 -503h-63l-131 503h63z" />
    <glyph glyph-name="bracketright" unicode="]" horiz-adv-x="302" 
d="M188 421h-124c-17 0 -17 -4 -18 -18h-9v94h9c3 -10 2 -18 13 -18h217v-9c-16 -4 -19 -11 -19 -29v-410c0 -13 5 -19 19 -22v-9h-219c-4 0 -10 -3 -12 -18h-9v94h9c4 -15 11 -18 19 -18h124v363z" />
    <glyph glyph-name="asciicircum" unicode="^" horiz-adv-x="557" 
d="M498 376h-79l-141 256h-2l-138 -256h-80l198 336h43z" />
    <glyph glyph-name="underscore" unicode="_" horiz-adv-x="500" 
d="M500 -75v-50h-500v50h500z" />
    <glyph glyph-name="quoteleft" unicode="&#x2018;" horiz-adv-x="250" 
d="M132 491l10 -8c-18 -28 -26 -50 -26 -77c9 0 4 1 21 1s39 -11 39 -44c0 -28 -22 -51 -50 -51c-30 0 -53 28 -53 63c0 37 15 66 59 116z" />
    <glyph glyph-name="a" unicode="a" 
d="M288 153l-63 140l-64 -140h127zM162 353v9h137v-9c-10 -1 -25 -7 -19 -19l143 -309c5 -10 8 -13 21 -16v-9h-110v9c16 5 15 9 13 16l-38 81h-171l-38 -81l-2 -7c0 -3 5 -6 16 -9v-9h-100v9c12 4 17 7 21 16l148 312c2 5 -5 12 -21 16z" />
    <glyph glyph-name="b" unicode="b" 
d="M279 311h-142v-98h134c45 0 67 25 67 50c0 28 -23 48 -59 48zM265 162h-128v-111h134c45 0 74 22 74 56s-28 55 -80 55zM40 353v9h250c94 0 123 -46 123 -93c0 -36 -15 -55 -63 -79c42 -15 73 -38 73 -91c0 -69 -63 -99 -134 -99h-249v9c17 4 24 8 24 16v312
c0 8 -7 12 -24 16z" />
    <glyph glyph-name="c" unicode="c" 
d="M442 48l-8 -5c-11 7 -16 9 -19 9c-16 0 -55 -60 -174 -60c-118 0 -207 81 -207 187c0 109 92 191 210 191c93 0 152 -45 157 -45s11 6 18 11l9 -5l-54 -79l-9 5c6 17 3 24 -8 30c-19 10 -61 29 -107 29c-92 0 -138 -58 -138 -134c0 -91 69 -136 137 -136
c59 0 130 39 130 58c0 5 -2 10 -5 16l8 7z" />
    <glyph glyph-name="d" unicode="d" horiz-adv-x="510" 
d="M282 311h-133v-260h143c71 0 113 48 113 130c0 84 -43 130 -123 130zM52 353v9h246c113 0 185 -71 185 -182c0 -110 -72 -180 -185 -180h-246v9c17 3 24 8 24 15v314c0 9 -11 12 -24 15z" />
    <glyph glyph-name="e" unicode="e" 
d="M145 160v-109h260c8 0 12 7 16 24h9v-99h-9c-4 17 -8 24 -16 24h-357v9c17 4 24 9 24 16v312c0 8 -7 12 -24 16v9h357c7 0 12 7 16 24h9v-99h-9c-5 17 -9 24 -16 24h-260v-100h164c7 0 11 7 15 24h9v-99h-9c-4 17 -8 24 -15 24h-164z" />
    <glyph glyph-name="f" unicode="f" 
d="M49 353v9h361c7 0 12 7 15 24h9v-99h-9c-3 17 -8 24 -15 24h-264v-105h165c8 0 12 7 16 24h9v-99h-9c-4 17 -8 24 -16 24h-165v-130c0 -7 7 -12 24 -16v-9h-121v9c17 4 24 9 24 16v314c0 8 -7 10 -24 14z" />
    <glyph glyph-name="g" unicode="g" horiz-adv-x="510" 
d="M263 208h9c5 -18 10 -24 19 -24h184v-9c-17 -3 -25 -8 -25 -15v-94c0 -5 6 -7 25 -7v-9c-94 -44 -148 -58 -215 -58c-137 0 -231 75 -231 186c0 110 99 192 232 192c44 0 85 -10 136 -29l19 -7c6 -2 8 -3 10 -3c5 0 8 4 14 12l5 -3l-45 -89l-6 2c3 7 4 11 4 15
c0 6 -2 9 -5 12c-32 22 -80 36 -130 36c-96 0 -156 -53 -156 -137c0 -64 39 -133 162 -133c42 0 71 5 112 20v67h-95c-8 0 -11 -6 -14 -21h-9v96z" />
    <glyph glyph-name="h" unicode="h" horiz-adv-x="510" 
d="M373 24v136h-236v-136c0 -7 7 -11 24 -15v-9h-121v9c17 4 24 8 24 15v313c0 8 -7 12 -24 16v9h121v-9c-17 -4 -24 -9 -24 -17v-125h236v126c0 8 -7 12 -24 16v9h121v-9c-17 -4 -24 -8 -24 -16v-313c0 -7 7 -11 24 -15v-9h-121v9c17 4 24 8 24 15z" />
    <glyph glyph-name="i" unicode="i" horiz-adv-x="250" 
d="M186 362v-9c-17 -4 -24 -8 -24 -16v-312c0 -7 7 -12 24 -16v-9h-121v9c18 4 24 9 24 16v312c0 8 -7 12 -24 16v9h121z" />
    <glyph glyph-name="j" unicode="j" horiz-adv-x="354" 
d="M307 362v-9c-17 -4 -24 -8 -24 -15v-224c0 -79 -45 -122 -127 -122c-70 0 -100 24 -109 24c-4 0 -9 -2 -17 -11l-9 3l38 85l9 -3c-1 -6 -1 -9 -1 -12c0 -29 70 -35 81 -35c43 0 62 22 62 52v243c0 7 -6 11 -23 15v9h120z" />
    <glyph glyph-name="k" unicode="k" horiz-adv-x="510" 
d="M214 189l-70 -49v-115c0 -7 7 -12 24 -16v-9h-121v9c17 4 24 8 24 16v312c0 8 -7 12 -24 16v9h121v-9c-17 -4 -24 -8 -24 -16v-136l195 132c7 5 18 12 18 16c0 2 -7 3 -15 4v9h124v-9c-18 -4 -23 -7 -32 -13l-165 -113l193 -202c8 -8 14 -12 28 -16v-9h-129v9
c11 3 15 6 15 10c0 2 -1 4 -4 6z" />
    <glyph glyph-name="l" unicode="l" 
d="M404 0h-353v9c17 3 24 8 24 15v314c0 7 -7 11 -24 15v9h121v-9c-17 -4 -24 -8 -24 -15v-287h256c8 0 12 7 16 24h9v-99h-9c-4 17 -8 24 -16 24z" />
    <glyph glyph-name="m" unicode="m" horiz-adv-x="656" 
d="M183 338l143 -227l145 227c2 1 2 3 2 5c0 4 -4 7 -19 10v9h136v-9c-17 -4 -24 -8 -24 -15v-314c0 -7 7 -11 24 -15v-9h-121v9c17 4 24 8 24 15v249l-174 -274l-174 275v-250c0 -7 7 -11 24 -15v-9h-102v9c18 4 24 8 24 15v314c0 7 -7 11 -24 15v9h141v-9
c-31 -7 -26 -14 -25 -15z" />
    <glyph glyph-name="n" unicode="n" horiz-adv-x="510" 
d="M363 25l-235 253v-253c0 -7 7 -12 24 -16v-9h-102v9c17 4 24 9 24 16v312c0 8 -7 12 -24 16v9h141v-9c-15 -4 -31 -10 -26 -16l217 -232v232c0 8 -7 12 -24 16v9h102v-9c-17 -4 -24 -8 -24 -16v-312c0 -7 7 -12 24 -16v-9h-109v9c9 3 14 6 14 10c0 2 -1 4 -2 6z" />
    <glyph glyph-name="o" unicode="o" 
d="M234 316c-78 0 -131 -55 -131 -136c0 -79 52 -134 126 -134c75 0 125 55 125 134c0 78 -51 136 -120 136zM222 370c127 0 210 -74 210 -189c0 -113 -82 -189 -205 -189c-121 0 -202 74 -202 185c0 109 86 193 197 193z" />
    <glyph glyph-name="p" unicode="p" 
d="M296 149h-148v-122c0 -10 7 -15 24 -18v-9h-121v9c17 4 24 9 24 16v309c0 10 -7 16 -24 19v9h250c80 0 131 -41 131 -105c0 -65 -54 -108 -136 -108zM272 311h-124v-111h136c47 0 75 20 75 55c0 26 -16 56 -87 56z" />
    <glyph glyph-name="q" unicode="q" 
d="M165 145c84 11 113 -32 146 -70c31 23 43 59 43 104c0 81 -50 137 -124 137s-127 -57 -127 -137c0 -102 85 -133 113 -133c14 0 30 1 42 5c-30 46 -47 65 -93 83v11zM336 -58l-43 58c-6 -1 -15 -3 -27 -5s-26 -3 -42 -3c-114 0 -199 77 -199 186c0 113 85 192 204 192
c120 0 203 -76 203 -188c0 -69 -21 -112 -81 -157l34 -40c3 -5 7 -7 10 -7c4 0 10 6 18 13l6 -7l-80 -80l-7 7c9 9 10 12 10 17c0 4 -2 8 -6 14z" />
    <glyph glyph-name="r" unicode="r" horiz-adv-x="510" 
d="M276 154h-137v-129c0 -7 7 -12 24 -16v-9h-121v9c17 4 24 9 24 16v312c0 8 -7 12 -24 16v9h285c110 0 145 -53 145 -103c0 -72 -61 -101 -113 -105l102 -130c7 -9 14 -13 27 -15v-9h-121v9c10 3 14 6 14 10c0 1 -1 3 -3 5zM333 311h-194v-106h189c38 0 66 19 66 53
s-28 53 -61 53z" />
    <glyph glyph-name="s" unicode="s" 
d="M81 109l9 -4c-1 -6 -1 -13 -1 -16c0 -19 81 -46 145 -46c82 0 116 29 116 60c0 33 -33 48 -123 53c-61 3 -177 8 -177 100c0 59 54 114 172 114c48 0 99 -10 137 -25l15 -6c4 -2 9 -5 12 -5c6 0 10 4 16 13l8 -4l-44 -79l-8 3c1 4 2 6 2 9c0 7 -3 11 -9 15
c-32 17 -82 28 -128 28c-66 0 -109 -22 -109 -55c0 -27 26 -37 105 -42c136 -9 195 -43 195 -112s-69 -118 -167 -118c-53 0 -115 14 -160 31l-18 7c-2 2 -4 2 -6 2c-6 0 -9 -2 -15 -10l-9 5z" />
    <glyph glyph-name="t" unicode="t" 
d="M403 311h-137v-287c0 -7 7 -11 24 -15v-9h-121v9c17 4 24 8 24 15v287h-137c-7 0 -12 -7 -16 -24h-9v99h9c4 -18 8 -24 16 -24h347c8 0 12 7 16 24h9v-99h-9c-4 17 -8 24 -16 24z" />
    <glyph glyph-name="u" unicode="u" 
d="M428 362v-9c-17 -4 -24 -8 -24 -16v-202c0 -103 -56 -143 -184 -143c-118 0 -167 43 -167 143v202c0 8 -7 12 -24 16v9h121v-9c-18 -4 -24 -8 -24 -16v-206c0 -62 27 -85 107 -85c64 0 98 27 98 80v211c0 8 -7 12 -24 16v9h121z" />
    <glyph glyph-name="v" unicode="v" 
d="M158 0v9c19 9 19 10 18 16l-137 312c-4 9 -11 13 -26 16v9h121v-9c-8 -3 -23 -7 -21 -16l118 -270l120 270c1 6 2 9 -17 16v9h106v-9c-19 -9 -26 -12 -27 -16l-140 -312c-2 -7 2 -10 20 -16v-9h-135z" />
    <glyph glyph-name="w" unicode="w" horiz-adv-x="656" 
d="M276 362h135v-9c-15 -5 -22 -9 -21 -16l84 -257l91 257c1 9 0 9 -21 16v9h98v-9c-12 -5 -19 -8 -22 -16l-113 -314c9 -9 16 -11 25 -14v-9h-132v9c6 3 14 6 23 11l-90 274l-88 -269c-1 -5 -2 -9 21 -16v-9h-133v9c18 10 20 11 19 16l-112 312c-3 9 -10 13 -26 16v9h124
v-9c-9 -3 -24 -7 -23 -16l93 -260l88 260c0 5 1 8 -20 16v9z" />
    <glyph glyph-name="x" unicode="x" horiz-adv-x="510" 
d="M53 25l161 164l-141 148c-9 10 -15 13 -29 16v9h136v-9c-12 -4 -17 -7 -17 -12c0 -1 1 -3 2 -4l94 -98l100 98c2 2 3 4 3 6c0 4 -8 7 -17 10v9h121v-9c-18 -5 -27 -8 -35 -16l-135 -138l164 -174c5 -6 14 -13 28 -16v-9h-138v9c21 5 20 16 17 18l-118 123l-118 -121
c-2 -2 -7 -8 -7 -10c0 -4 5 -7 16 -10v-9h-117v9c17 6 23 9 30 16z" />
    <glyph glyph-name="y" unicode="y" 
d="M415 338l-150 -185v-129c0 -7 7 -11 24 -15v-9h-121v9c17 4 24 8 24 15v127l-151 186c-6 8 -13 13 -25 16v9h130l1 -9c-24 -6 -22 -13 -20 -16l108 -133l109 134c2 4 2 11 -19 16v8h117v-8c-15 -5 -21 -8 -27 -16z" />
    <glyph glyph-name="z" unicode="z" 
d="M29 0l271 311h-233c-7 0 -11 -8 -15 -24h-9v99h9c4 -17 6 -24 13 -24h363l-268 -311h243c7 0 11 7 15 24h9v-99h-9c-4 17 -8 24 -15 24h-374z" />
    <glyph glyph-name="braceleft" unicode="{" horiz-adv-x="341" 
d="M233 562h19v-52h-11c-44 0 -57 -8 -57 -70c0 -124 0 -167 -70 -201c58 -24 70 -71 70 -152c0 -107 0 -118 57 -118h11v-52h-19c-25 0 -60 1 -83 31c-23 29 -23 63 -23 134c0 66 -2 130 -69 130v55c67 0 68 63 69 130c1 71 2 105 23 134c23 31 58 31 83 31z" />
    <glyph glyph-name="bar" unicode="|" horiz-adv-x="165" 
d="M116 -211h-68v900h68v-900z" />
    <glyph glyph-name="braceright" unicode="}" horiz-adv-x="341" 
d="M108 562c25 0 60 0 83 -31c21 -29 22 -63 23 -134c1 -67 2 -130 69 -130v-55c-67 0 -69 -64 -69 -130c0 -71 0 -105 -23 -134c-23 -30 -58 -31 -83 -31h-19v52h11c57 0 57 11 57 118c0 81 12 128 70 152c-70 34 -70 77 -70 201c0 62 -13 70 -57 70h-11v52h19z" />
    <glyph glyph-name="asciitilde" unicode="~" horiz-adv-x="557" 
d="M492 311c-28 -43 -66 -77 -119 -77c-37 0 -73 12 -103 30c-27 16 -54 29 -84 29s-60 -25 -80 -60l-42 43c26 41 64 76 122 76c36 0 67 -10 100 -29c31 -19 55 -29 84 -29s59 23 80 60z" />
    <glyph glyph-name="exclamdown" unicode="&#xa1;" horiz-adv-x="250" 
d="M195 9v-9h-141v9c20 4 22 3 24 19l35 292c0 7 -4 12 -25 19v9h72v-9c-18 -6 -23 -11 -22 -19l33 -295c1 -9 7 -12 24 -16zM123 391c-28 0 -50 22 -50 50s22 50 50 50s50 -22 50 -50s-22 -50 -50 -50z" />
    <glyph glyph-name="cent" unicode="&#xa2;" horiz-adv-x="354" 
d="M158 380v99h47v-99c44 -4 76 -35 91 -35c4 0 9 4 15 9l6 -3l-56 -83l-7 5c4 6 6 10 6 15c0 21 -38 39 -70 39c-47 0 -82 -38 -82 -85c0 -45 33 -92 94 -92c34 0 76 15 76 38c0 4 -1 8 -4 18l8 4l45 -91l-9 -4c-4 7 -7 13 -15 13c-9 0 -40 -26 -99 -31v-97h-46v100
c-86 20 -116 77 -116 137c0 77 44 127 116 143z" />
    <glyph glyph-name="sterling" unicode="&#xa3;" horiz-adv-x="406" 
d="M373 460l-57 -74l-8 5c3 7 5 12 5 14c0 9 -33 31 -63 31c-39 0 -65 -31 -65 -78c0 -16 3 -48 6 -77h76c16 0 20 5 21 24h9v-103h-9c-1 20 -5 24 -24 24h-66c-1 -83 -3 -100 -20 -147c30 -15 57 -28 86 -28c32 0 61 15 70 38l-4 13l9 4l47 -86l-9 -4c-5 8 -9 11 -13 11
c-3 0 -9 -2 -17 -8c-27 -20 -57 -31 -87 -31c-32 0 -54 10 -110 45c-22 -31 -44 -45 -71 -45c-34 0 -58 23 -58 55c0 36 29 61 70 61c17 0 33 -4 46 -9c3 41 -1 80 -10 131h-69c-9 0 -11 -3 -17 -24h-9v103h9c5 -21 6 -24 22 -24h58c-2 13 -3 34 -3 51c0 113 59 159 125 159
c47 0 103 -36 107 -36c5 0 10 3 16 10zM122 54c-15 10 -29 15 -44 15c-18 0 -28 -9 -28 -26c0 -15 9 -24 27 -24s30 10 45 35z" />
    <glyph glyph-name="fraction" unicode="&#x2044;" horiz-adv-x="286" 
d="M-44 -37l327 528h48l-327 -528h-48z" />
    <glyph glyph-name="yen" unicode="&#xa5;" horiz-adv-x="464" 
d="M405 460l-125 -227h129v-36h-138v-57h138v-36h-138v-82c0 -7 9 -10 18 -13v-9h-106v9c11 4 17 6 17 13v82h-140v36h140v57h-140v36h131l-137 227c-4 5 -9 6 -23 10v9h119v-9c-11 -1 -22 -4 -18 -10l110 -193l96 190c5 10 -4 11 -23 13v9h118v-9c-8 -1 -21 -3 -28 -10z
" />
    <glyph glyph-name="florin" unicode="&#x192;" horiz-adv-x="346" 
d="M-4 -141l11 54c27 -6 42 -8 53 -8c36 0 39 27 44 53l59 336h-69l7 48h70l8 47c6 44 19 102 98 102c28 0 49 -7 67 -12l7 -1l-12 -53c-25 5 -38 8 -53 8c-33 0 -37 -18 -45 -55l-7 -36h71l-9 -48h-70l-64 -353c-10 -62 -34 -90 -90 -90c-4 0 -32 0 -76 8z" />
    <glyph glyph-name="section" unicode="&#xa7;" horiz-adv-x="351" 
d="M308 299c0 -50 -21 -86 -60 -119c25 -22 40 -52 40 -84c0 -66 -47 -125 -134 -125c-39 0 -82 11 -111 30c6 17 13 33 19 49c25 -17 58 -29 87 -29c58 0 73 42 73 72c0 31 -20 52 -41 68c-12 10 -28 19 -41 27c-54 33 -89 71 -89 138c0 45 21 82 62 108
c-35 27 -50 62 -50 99c0 76 57 122 134 122c38 0 77 -12 99 -27c-6 -15 -13 -32 -18 -47c-23 14 -49 23 -79 23c-43 0 -70 -29 -70 -71s25 -65 90 -100c66 -39 89 -80 89 -134zM244 299c0 50 -29 75 -87 107c-27 -20 -43 -45 -43 -77c0 -54 28 -81 91 -119
c26 24 39 51 39 89z" />
    <glyph glyph-name="currency" unicode="&#xa4;" horiz-adv-x="552" 
d="M499 156c-14 -12 -26 -23 -40 -36c-22 20 -44 40 -67 60c-32 -22 -74 -36 -117 -36c-33 0 -79 9 -117 36c-22 -20 -45 -40 -67 -60c-13 13 -26 24 -39 36c22 19 45 39 67 58c-23 30 -38 66 -38 105s13 76 38 104c-22 20 -45 38 -67 58c13 13 26 25 39 38
c22 -20 45 -41 67 -61c40 26 84 36 117 36c37 0 83 -11 116 -36c23 20 46 41 68 61c14 -13 26 -25 40 -38c-23 -20 -46 -38 -68 -58c27 -33 39 -70 39 -104c0 -38 -14 -73 -39 -105c22 -19 45 -39 68 -58zM414 320c0 74 -69 123 -138 123c-80 0 -139 -58 -139 -123
c0 -67 62 -125 138 -125s139 56 139 125z" />
    <glyph glyph-name="quotesingle" unicode="'" horiz-adv-x="146" 
d="M109 633c-2 -65 -5 -130 -7 -197h-58c-2 67 -5 132 -7 197h72z" />
    <glyph glyph-name="quotedblleft" unicode="&#x201c;" horiz-adv-x="396" 
d="M141 491l10 -8c-18 -28 -26 -50 -26 -77c9 0 4 1 21 1s39 -11 39 -44c0 -28 -22 -51 -50 -51c-30 0 -53 28 -53 63c0 37 15 66 59 116zM278 491l10 -8c-18 -28 -26 -50 -26 -77c9 0 4 1 21 1s39 -11 39 -44c0 -28 -22 -51 -50 -51c-30 0 -53 28 -53 63c0 37 15 66 59 116
z" />
    <glyph glyph-name="guillemotleft" unicode="&#xab;" horiz-adv-x="406" 
d="M256 404h107v-9c-17 -6 -23 -12 -29 -28l-43 -115l44 -114c5 -14 15 -24 31 -29v-9h-108v9c9 1 13 3 9 13l-52 132l49 122c4 9 5 16 -8 19v9zM81 404h107v-9c-17 -6 -23 -12 -29 -28l-43 -115l44 -114c5 -14 15 -24 31 -29v-9h-108v9c9 1 13 3 9 13l-52 132l49 122
c4 9 5 16 -8 19v9z" />
    <glyph glyph-name="guilsinglleft" unicode="&#x2039;" horiz-adv-x="198" 
d="M64 404h107v-9c-17 -6 -23 -12 -29 -28l-43 -115l44 -114c5 -14 15 -24 31 -29v-9h-108v9c9 1 13 3 9 13l-52 132l49 122c4 9 5 16 -8 19v9z" />
    <glyph glyph-name="guilsinglright" unicode="&#x203a;" horiz-adv-x="198" 
d="M133 100h-107v9c17 6 23 12 29 28l43 115l-44 114c-5 14 -15 24 -31 29v9h108v-9c-9 -1 -13 -3 -9 -13l52 -132l-49 -122c-4 -9 -5 -16 8 -19v-9z" />
    <glyph glyph-name="endash" unicode="&#x2013;" horiz-adv-x="500" 
d="M-6 155v22h510v-22h-510z" />
    <glyph glyph-name="dagger" unicode="&#x2020;" horiz-adv-x="291" 
d="M264 438h-86v-327h-67v327h-85v50h85v137h67v-137h86v-50z" />
    <glyph glyph-name="daggerdbl" unicode="&#x2021;" horiz-adv-x="291" 
d="M264 246h-86v-135h-66v135h-86v52h86v142h-86v50h86v135h66v-135h86v-50h-86v-142h86v-52z" />
    <glyph glyph-name="periodcentered" unicode="&#xb7;" horiz-adv-x="250" 
d="M125 289c28 0 50 -22 50 -50s-22 -50 -50 -50s-50 22 -50 50s22 50 50 50z" />
    <glyph glyph-name="paragraph" unicode="&#xb6;" horiz-adv-x="373" 
d="M359 580h-50v-580h-61v580h-51v-580h-62v386c-64 2 -122 52 -122 122c0 80 66 122 129 122h217v-50z" />
    <glyph glyph-name="bullet" unicode="&#x2022;" horiz-adv-x="350" 
d="M175 360c67 0 122 -55 122 -122s-55 -122 -122 -122s-122 55 -122 122s55 122 122 122z" />
    <glyph glyph-name="quotesinglbase" unicode="&#x201a;" horiz-adv-x="250" 
d="M118 -91l-10 8c18 28 26 50 26 77c-9 0 -4 -1 -21 -1s-39 11 -39 44c0 28 22 51 50 51c30 0 53 -28 53 -63c0 -37 -15 -66 -59 -116z" />
    <glyph glyph-name="quotedblbase" unicode="&#x201e;" horiz-adv-x="396" 
d="M255 -91l-10 8c18 28 26 50 26 77c-9 0 -4 -1 -21 -1s-39 11 -39 44c0 28 22 51 50 51c30 0 53 -28 53 -63c0 -37 -15 -66 -59 -116zM118 -91l-10 8c18 28 26 50 26 77c-9 0 -4 -1 -21 -1s-39 11 -39 44c0 28 22 51 50 51c30 0 53 -28 53 -63c0 -37 -15 -66 -59 -116z
" />
    <glyph glyph-name="quotedblright" unicode="&#x201d;" horiz-adv-x="396" 
d="M255 312l-10 8c18 28 26 50 26 77c-9 0 -4 -1 -21 -1s-39 11 -39 44c0 28 22 51 50 51c30 0 53 -28 53 -63c0 -37 -15 -66 -59 -116zM118 312l-10 8c18 28 26 50 26 77c-9 0 -4 -1 -21 -1s-39 11 -39 44c0 28 22 51 50 51c30 0 53 -28 53 -63c0 -37 -15 -66 -59 -116z
" />
    <glyph glyph-name="guillemotright" unicode="&#xbb;" horiz-adv-x="406" 
d="M150 100h-107v9c17 6 23 12 29 28l43 115l-44 114c-5 14 -15 24 -31 29v9h108v-9c-9 -1 -13 -3 -9 -13l52 -132l-49 -122c-4 -9 -5 -16 8 -19v-9zM325 100h-107v9c17 6 23 12 29 28l43 115l-44 114c-5 14 -15 24 -31 29v9h108v-9c-9 -1 -13 -3 -9 -13l52 -132l-49 -122
c-4 -9 -5 -16 8 -19v-9z" />
    <glyph glyph-name="ellipsis" unicode="&#x2026;" horiz-adv-x="1000" 
d="M500 88c-28 0 -50 -22 -50 -50s22 -50 50 -50s50 22 50 50s-22 50 -50 50zM835 88c-28 0 -50 -22 -50 -50s22 -50 50 -50s50 22 50 50s-22 50 -50 50zM165 88c-28 0 -50 -22 -50 -50s22 -50 50 -50s50 22 50 50s-22 50 -50 50z" />
    <glyph glyph-name="perthousand" unicode="&#x2030;" horiz-adv-x="1090" 
d="M913 170c-42 0 -75 -33 -75 -77s32 -77 74 -77c41 0 73 33 73 76c0 42 -33 78 -72 78zM906 223c86 0 144 -51 144 -128c0 -76 -58 -132 -138 -132s-139 54 -139 129c0 72 60 131 133 131zM180 438c-42 0 -75 -33 -75 -77s32 -77 74 -77c41 0 73 33 73 76
c0 42 -33 78 -72 78zM173 491c86 0 144 -51 144 -128c0 -76 -58 -132 -138 -132s-139 54 -139 129c0 72 60 131 133 131zM185 -37l327 528h72l-327 -528h-72zM584 170c-42 0 -75 -33 -75 -77s32 -77 74 -77c41 0 73 33 73 76c0 42 -33 78 -72 78zM577 223
c86 0 144 -51 144 -128c0 -76 -58 -132 -138 -132s-139 54 -139 129c0 72 60 131 133 131z" />
    <glyph glyph-name="questiondown" unicode="&#xbf;" horiz-adv-x="406" 
d="M192 391c-28 0 -50 22 -50 50s22 50 50 50s50 -22 50 -50s-22 -50 -50 -50zM111 226c42 39 56 69 56 95c0 13 -6 14 -27 18v9h113v-9c-17 -3 -21 -5 -24 -13c0 -51 -10 -79 -47 -120s-51 -65 -51 -91c0 -27 23 -60 71 -60c51 0 88 38 88 49c0 3 -5 13 -11 21l7 5l77 -75
l-6 -7c-7 5 -13 9 -19 9c-7 0 -46 -69 -146 -69c-78 0 -136 53 -136 126c0 41 15 74 55 112z" />
    <glyph glyph-name="grave" unicode="`" horiz-adv-x="333" 
d="M179 645l55 -107l10 -2l2 -9h-76l-2 8l6 6l-82 108l-10 3v9h113v-7z" />
    <glyph glyph-name="acute" unicode="&#xb4;" horiz-adv-x="333" 
d="M154 645l-16 9v7h113v-9l-10 -3l-82 -108l6 -6l-2 -8h-76l2 9l10 2z" />
    <glyph glyph-name="circumflex" unicode="&#x2c6;" horiz-adv-x="333" 
d="M86 661h158v-9l-7 -3l92 -110l16 -3v-9h-115v9l11 3l-89 78l-80 -78l16 -3v-9h-100v9l14 3l96 110l-12 3v9z" />
    <glyph glyph-name="tilde" unicode="&#x2dc;" horiz-adv-x="333" 
d="M-7 597l11 -10c47 35 68 44 95 44c20 0 42 -6 80 -24c33 -16 49 -21 64 -21c18 0 41 9 61 24l-6 20l3 2l48 -65l-3 -4l-10 7c-49 -35 -72 -45 -97 -45c-18 0 -41 7 -78 25c-34 17 -50 22 -66 22c-19 0 -39 -8 -61 -24l6 -17l-5 -2l-45 64z" />
    <glyph glyph-name="macron" unicode="&#xaf;" horiz-adv-x="333" 
d="M11 527v63h311v-63h-311z" />
    <glyph glyph-name="breve" unicode="&#x2d8;" horiz-adv-x="333" 
d="M7 652v9h102v-9l-22 -4c13 -45 41 -65 81 -65s69 20 81 65l-21 4v9h99v-9l-19 -4c-16 -81 -65 -121 -138 -121c-76 0 -136 51 -145 121z" />
    <glyph glyph-name="dotaccent" unicode="&#x2d9;" horiz-adv-x="333" 
d="M167 527c-26 0 -45 20 -45 45c0 23 19 45 45 45c27 0 45 -22 45 -45c0 -25 -19 -45 -45 -45z" />
    <glyph glyph-name="dieresis" unicode="&#xa8;" horiz-adv-x="333" 
d="M280 527c-26 0 -45 20 -45 45c0 23 19 45 45 45c27 0 45 -22 45 -45c0 -25 -19 -45 -45 -45zM53 527c-26 0 -45 20 -45 45c0 23 19 45 45 45c27 0 45 -22 45 -45c0 -25 -19 -45 -45 -45z" />
    <glyph glyph-name="ring" unicode="&#x2da;" horiz-adv-x="333" 
d="M164 670c42 0 74 -31 74 -71s-32 -72 -71 -72c-40 0 -71 32 -71 71c0 38 32 72 68 72zM168 634c-21 0 -37 -15 -37 -35s16 -36 36 -36c19 0 35 16 35 36c0 19 -16 35 -34 35z" />
    <glyph glyph-name="cedilla" unicode="&#xb8;" horiz-adv-x="333" 
d="M111 -66l9 -1c1 -21 11 -28 41 -28c31 0 45 14 45 36c0 25 -15 41 -59 63h49c53 -25 75 -41 75 -77s-39 -65 -94 -65c-22 0 -45 7 -55 7c-5 0 -10 -4 -11 -14l-9 1z" />
    <glyph glyph-name="hungarumlaut" unicode="&#x2dd;" horiz-adv-x="333" 
d="M111 645l-16 9v7h113v-9l-10 -3l-82 -108l6 -6l-2 -8h-76l2 9l10 2zM262 643l-16 9v7h113v-9l-10 -3l-82 -108l6 -6l-2 -8h-76l2 9l10 2z" />
    <glyph glyph-name="ogonek" unicode="&#x2db;" horiz-adv-x="333" 
d="M247 -76l13 -50l-5 -2c-4 5 -6 10 -12 10c-8 0 -22 -8 -60 -8c-57 0 -98 28 -98 63c0 22 10 40 77 70h57c-60 -27 -75 -42 -75 -64c0 -18 16 -39 58 -39c12 0 41 1 40 19z" />
    <glyph glyph-name="caron" unicode="&#x2c7;" horiz-adv-x="333" 
d="M247 527h-158v9l7 3l-92 110l-16 3v9h115v-9l-11 -3l89 -78l80 78l-16 3v9h100v-9l-14 -3l-96 -110l12 -3v-9z" />
    <glyph glyph-name="emdash" unicode="&#x2014;" horiz-adv-x="1000" 
d="M-6 155v22h1011v-22h-1011z" />
    <glyph glyph-name="AE" unicode="&#xc6;" horiz-adv-x="740" 
d="M323 199v208l-120 -208h120zM-2 0v9c13 4 15 6 21 17l246 423c3 5 4 9 4 12c0 7 -9 8 -23 9v9h442c5 0 5 1 10 16c0 2 1 4 3 8h8v-120h-8c-4 14 -5 24 -22 24h-272v-127h175c9 0 14 8 16 24h9v-118h-9c-1 19 -6 24 -20 24h-171v-138h280c8 0 8 5 12 24h9v-120h-9
c-2 15 -4 24 -12 24h-388v9c19 4 24 7 24 16v102h-161l-56 -95c-2 -3 -3 -6 -3 -9c0 -8 5 -11 21 -14l1 -9h-127z" />
    <glyph glyph-name="ordfeminine" unicode="&#xaa;" horiz-adv-x="276" 
d="M73 407l-47 12c3 24 22 72 105 72c49 0 106 -9 106 -84v-84c0 -46 0 -70 14 -87h-52c-5 9 -7 19 -7 31c-21 -18 -53 -37 -90 -37c-33 0 -86 17 -86 77c0 38 17 59 82 74c26 5 57 4 87 16c0 34 -6 51 -54 51c-28 0 -52 -7 -58 -41zM185 356c-12 -4 -18 -5 -49 -11
c-46 -9 -68 -11 -68 -39c0 -23 22 -33 46 -33c26 0 44 7 58 25c9 12 14 25 13 58z" />
    <glyph glyph-name="Lslash" unicode="&#x141;" horiz-adv-x="510" 
d="M175 224v-152h278c9 0 14 8 16 24h9v-120h-9c-6 20 -8 24 -18 24h-384v9c19 3 24 7 24 16v143l-63 -52c-4 -4 -6 -17 -8 -28h-9v120h9c2 -9 3 -12 7 -12c5 0 8 2 18 10l46 35v213c0 9 -5 12 -24 16v9h132v-9c-19 -4 -24 -7 -24 -16v-154l87 63c15 11 21 19 24 38h9v-122
h-9c-1 10 -4 17 -8 17s-10 -4 -14 -8z" />
    <glyph glyph-name="Oslash" unicode="&#xd8;" horiz-adv-x="604" 
d="M156 126l240 273c-19 9 -41 20 -96 20c-126 0 -177 -90 -177 -180c0 -44 6 -74 33 -113zM448 355l-241 -273c30 -14 55 -22 97 -22c104 0 177 61 177 180c0 60 -26 106 -33 115zM101 63h2c-49 54 -71 106 -71 173c0 149 114 255 269 255c79 0 121 -21 144 -34l14 14
c8 8 11 13 11 19c0 4 -2 10 -12 20l6 7l93 -73l-6 -7c-8 4 -15 7 -19 7s-7 -2 -15 -10l-17 -18c44 -44 72 -104 72 -175c0 -136 -106 -253 -270 -253c-63 0 -108 16 -145 35l-16 -16c-10 -10 -13 -16 -13 -19c0 -7 3 -10 11 -19l-7 -7l-86 68l6 7c7 -4 12 -6 16 -6
s7 1 15 11z" />
    <glyph glyph-name="OE" unicode="&#x152;" horiz-adv-x="760" 
d="M365 73v333c-20 6 -34 8 -54 8c-112 0 -184 -69 -184 -177c0 -104 66 -170 171 -170c20 0 46 3 67 6zM726 -24h-9c-2 15 -8 24 -16 24h-313c-7 0 -27 -1 -47 -2s-40 -3 -48 -3c-141 0 -257 109 -257 243c0 112 82 248 272 248c21 0 41 -2 58 -3c18 -2 34 -4 48 -4h287
c4 0 13 7 16 23h9v-119h-9c-4 13 -5 24 -22 24h-246v-126h162c9 0 14 8 16 24h9v-120h-9c-1 19 -6 24 -20 24h-158v-137h252c8 0 11 5 16 24h9v-120z" />
    <glyph glyph-name="ordmasculine" unicode="&#xba;" horiz-adv-x="310" 
d="M155 491c89 0 114 -79 114 -131s-26 -130 -114 -130c-76 0 -114 59 -114 129c0 56 27 132 114 132zM155 445c-59 0 -63 -61 -63 -85c0 -13 0 -84 63 -84c62 0 62 66 62 86c0 12 0 83 -62 83z" />
    <glyph glyph-name="ae" unicode="&#xe6;" horiz-adv-x="646" 
d="M341 160v-109h254c7 0 11 7 15 24h9v-99h-9c-4 17 -8 24 -15 24h-351v9c17 3 24 8 24 15v82h-121l-51 -82c-1 -1 -1 -3 -1 -5c0 -6 4 -9 15 -10v-9h-103v9c9 3 14 8 18 15l187 306c1 2 5 6 5 12c0 5 -4 8 -14 11v9h391c7 0 11 7 15 24h9v-99h-9c-4 17 -8 24 -15 24h-253
v-100h161c7 0 11 7 15 24h9v-99h-9c-4 17 -8 24 -15 24h-161zM176 157h92v157z" />
    <glyph glyph-name="dotlessi" unicode="&#x131;" horiz-adv-x="250" 
d="M186 362v-9c-17 -4 -24 -8 -24 -16v-312c0 -7 7 -12 24 -16v-9h-121v9c18 4 24 9 24 16v312c0 8 -7 12 -24 16v9h121z" />
    <glyph glyph-name="lslash" unicode="&#x142;" 
d="M31 77c-4 -4 -5 -14 -7 -28h-9v103h9c2 -10 2 -10 6 -10c3 0 29 21 45 34v162c0 7 -7 11 -24 15v9h121v-9c-17 -4 -24 -8 -24 -15v-114l96 71c8 6 11 12 14 32h9v-109h-9c-1 10 -3 17 -6 17c-4 0 -8 -2 -10 -4l-94 -71v-109h256c8 0 12 7 16 24h9v-99h-9
c-4 17 -8 24 -16 24h-353v9c17 3 24 8 24 15v89z" />
    <glyph glyph-name="oslash" unicode="&#xf8;" 
d="M122 105l182 189c-30 17 -48 22 -74 22c-85 0 -127 -68 -127 -140c0 -26 4 -42 19 -71zM335 260l-183 -189c29 -18 50 -25 78 -25c66 0 123 46 123 139c0 29 -3 47 -18 75zM47 28l25 25c-34 45 -47 78 -47 124c0 114 84 193 201 193c45 0 82 -7 122 -31l32 32
c2 2 7 7 7 13c0 5 -2 8 -10 18l9 8l66 -66l-8 -8c-8 7 -13 9 -18 9s-8 -1 -12 -5l-30 -30c33 -37 48 -76 48 -126c0 -115 -82 -192 -203 -192c-47 0 -83 9 -122 32l-31 -31c-3 -2 -8 -9 -8 -13c0 -8 4 -14 9 -21l-9 -8l-66 66l8 9c8 -6 14 -9 21 -9c4 0 14 9 16 11z" />
    <glyph glyph-name="oe" unicode="&#x153;" horiz-adv-x="656" 
d="M369 160v-109h229c8 0 12 7 16 24h9v-99h-9c-4 18 -8 24 -16 24h-267c-7 0 -33 -3 -50 -3c-12 0 -42 -2 -50 -2c-172 0 -208 130 -208 190c0 56 34 182 204 182c8 0 29 -1 51 -2s45 -3 53 -3h267c8 0 12 7 16 24h9v-99h-9c-4 17 -8 24 -16 24h-229v-100h149
c8 0 12 7 16 24h9v-99h-9c-4 17 -8 24 -16 24h-149zM296 54v255c-22 3 -40 4 -62 4c-93 0 -133 -52 -133 -131c0 -88 57 -133 124 -133c21 0 50 3 71 5z" />
    <glyph glyph-name="germandbls" unicode="&#xdf;" horiz-adv-x="916" 
d="M539 109l9 -4c-1 -6 -1 -13 -1 -16c0 -19 81 -46 145 -46c82 0 116 29 116 60c0 33 -33 48 -123 53c-61 3 -177 8 -177 100c0 59 54 114 172 114c48 0 99 -10 137 -25l15 -6c4 -2 9 -5 12 -5c6 0 10 4 16 13l8 -4l-44 -79l-8 3c1 4 2 6 2 9c0 7 -3 11 -9 15
c-32 17 -82 28 -128 28c-66 0 -109 -22 -109 -55c0 -27 26 -37 105 -42c136 -9 195 -43 195 -112s-69 -118 -167 -118c-53 0 -115 14 -160 31l-18 7c-2 2 -4 2 -6 2c-6 0 -9 -2 -15 -10l-9 5zM81 109l9 -4c-1 -6 -1 -13 -1 -16c0 -19 81 -46 145 -46c82 0 116 29 116 60
c0 33 -33 48 -123 53c-61 3 -177 8 -177 100c0 59 54 114 172 114c48 0 99 -10 137 -25l15 -6c4 -2 9 -5 12 -5c6 0 10 4 16 13l8 -4l-44 -79l-8 3c1 4 2 6 2 9c0 7 -3 11 -9 15c-32 17 -82 28 -128 28c-66 0 -109 -22 -109 -55c0 -27 26 -37 105 -42
c136 -9 195 -43 195 -112s-69 -118 -167 -118c-53 0 -115 14 -160 31l-18 7c-2 2 -4 2 -6 2c-6 0 -9 -2 -15 -10l-9 5z" />
    <glyph glyph-name="onesuperior" unicode="&#xb9;" horiz-adv-x="240" 
d="M105 250v171c-4 -2 -8 -3 -13 -4c-17 -3 -22 -5 -24 -14h-6v53h6c1 -6 4 -9 8 -9c12 0 28 8 28 21c0 6 -4 10 -13 12v6h69v-6c-9 -1 -14 -4 -14 -8v-223c0 -5 4 -7 14 -7v-6h-69v7c9 0 14 3 14 7z" />
    <glyph glyph-name="logicalnot" unicode="&#xac;" horiz-adv-x="557" 
d="M476 151h-66v199h-329v60h395v-259z" />
    <glyph glyph-name="mu" unicode="&#xb5;" horiz-adv-x="442" 
d="M375 382v-382h-65v45h-2c-20 -37 -44 -53 -84 -53c-35 0 -60 13 -82 46h-1v-184h-71v528h71v-211c0 -83 33 -122 79 -122c53 0 84 45 84 120v213h71z" />
    <glyph glyph-name="trademark" unicode="&#x2122;" horiz-adv-x="696" 
d="M149 197v240h-91v42h230v-42h-92v-240h-47zM320 197v282h70l70 -225h1l68 225h68v-282h-43v237h-1l-71 -237h-43l-74 240h-1v-240h-44z" />
    <glyph glyph-name="Eth" unicode="&#xd0;" horiz-adv-x="604" 
d="M38 209c-9 0 -14 -8 -16 -24h-9v120h9c1 -19 2 -24 16 -24h42v173c0 9 -5 12 -24 16v9h281c137 0 225 -82 225 -237c0 -156 -85 -242 -240 -242h-266v9c19 3 24 7 24 16v184h-42zM277 209h-113v-137h156c104 0 154 56 154 173c0 103 -52 162 -146 162h-164v-126h116
c9 0 14 8 16 24h9v-120h-9c-1 19 -5 24 -19 24z" />
    <glyph glyph-name="onehalf" unicode="&#xbd;" horiz-adv-x="652" 
d="M105 250v171c-4 -2 -8 -3 -13 -4c-17 -3 -22 -5 -24 -14h-6v53h6c1 -6 4 -9 8 -9c12 0 28 8 28 21c0 6 -4 10 -13 12v6h69v-6c-9 -1 -14 -4 -14 -8v-223c0 -5 4 -7 14 -7v-6h-69v7c9 0 14 3 14 7zM147 -37l327 528h48l-327 -528h-48zM632 -11h-7c-2 9 -3 11 -8 11h-168
c-6 0 -7 -1 -9 -11h-7c4 63 25 91 92 131c32 19 53 33 53 59c0 20 -15 44 -49 44s-61 -31 -61 -36c0 -2 2 -7 5 -10l-5 -5l-42 40l5 5c5 -4 8 -6 10 -6c8 0 33 44 91 44c50 0 89 -31 89 -72c0 -33 -12 -51 -71 -85c-42 -24 -59 -40 -71 -66h138c5 0 7 7 8 12h7v-55z" />
    <glyph glyph-name="plusminus" unicode="&#xb1;" horiz-adv-x="557" 
d="M476 0h-395v60h395v-60zM476 325h-165v-189h-66v189h-164v60h164v189h66v-189h165v-60z" />
    <glyph glyph-name="Thorn" unicode="&#xde;" horiz-adv-x="510" 
d="M310 306h-140v-133h161c40 0 67 25 67 66c0 43 -32 67 -88 67zM194 479v-9c-19 -3 -25 -7 -25 -16v-76h163c92 0 154 -54 154 -134c0 -85 -64 -143 -153 -143h-163v-76c0 -9 5 -12 24 -16v-9h-132v9c19 3 24 7 24 16v429c0 9 -5 12 -24 16v9h132z" />
    <glyph glyph-name="onequarter" unicode="&#xbc;" horiz-adv-x="652" 
d="M560 74v131l-100 -131h100zM602 234v-160h16c5 0 8 6 8 12h6v-53h-6c-2 9 -5 12 -13 12h-11v-34c0 -2 4 -4 15 -6v-5h-72v5c9 1 15 4 15 9v31h-130c-5 0 -8 -3 -10 -12h-6v34l132 173c1 2 -6 3 -16 4v5h87v-5c-9 -2 -15 -5 -15 -10zM105 250v171c-4 -2 -8 -3 -13 -4
c-17 -3 -22 -5 -24 -14h-6v53h6c1 -6 4 -9 8 -9c12 0 28 8 28 21c0 6 -4 10 -13 12v6h69v-6c-9 -1 -14 -4 -14 -8v-223c0 -5 4 -7 14 -7v-6h-69v7c9 0 14 3 14 7zM167 -37l327 528h48l-327 -528h-48z" />
    <glyph glyph-name="divide" unicode="&#xf7;" horiz-adv-x="557" 
d="M331 472c0 -28 -24 -48 -52 -48s-52 22 -52 48s23 47 52 47c30 0 52 -20 52 -47zM476 264h-395v60h395v-60zM331 116c0 -28 -24 -47 -52 -47s-52 21 -52 47s23 47 52 47c30 0 52 -20 52 -47z" />
    <glyph glyph-name="brokenbar" unicode="&#xa6;" horiz-adv-x="165" 
d="M116 310h-68v379h68v-379zM116 -211h-68v381h68v-381z" />
    <glyph glyph-name="degree" unicode="&#xb0;" horiz-adv-x="383" 
d="M318 520c0 -62 -57 -114 -125 -114c-70 0 -128 52 -128 114c0 64 57 111 126 111s127 -47 127 -111zM268 520c0 41 -33 70 -75 70c-43 0 -78 -30 -78 -70s34 -71 76 -71c43 0 77 31 77 71z" />
    <glyph glyph-name="thorn" unicode="&#xfe;" 
d="M172 362v-9c-17 -4 -24 -8 -24 -16v-49h148c84 0 136 -42 136 -106c0 -65 -54 -108 -136 -108h-148v-47c0 -10 7 -15 24 -18v-9h-121v9c17 4 24 9 24 16v311c0 10 -6 14 -24 17v9h121zM272 237h-124v-112h136c47 0 75 21 75 56c0 26 -16 56 -87 56z" />
    <glyph glyph-name="threequarters" unicode="&#xbe;" horiz-adv-x="652" 
d="M560 74v131l-100 -131h100zM602 234v-160h16c5 0 8 6 8 12h6v-53h-6c-2 9 -5 12 -13 12h-11v-34c0 -2 4 -4 15 -6v-5h-72v5c9 1 15 4 15 9v31h-130c-5 0 -8 -3 -10 -12h-6v34l132 173c1 2 -6 3 -16 4v5h87v-5c-9 -2 -15 -5 -15 -10zM167 -37l327 528h48l-327 -528h-48z
M93 397h6c3 -12 6 -13 17 -13c33 0 54 14 54 37c0 19 -18 38 -50 38c-39 0 -54 -26 -54 -27c0 -2 4 -7 7 -10l-4 -4l-47 41l3 3c5 -3 8 -4 10 -4c6 -1 33 33 92 33c48 0 84 -29 84 -68c0 -23 -10 -38 -37 -54c34 -17 47 -35 47 -62c0 -44 -42 -77 -97 -77
c-49 0 -84 27 -90 27c-3 0 -7 -2 -11 -6l-5 2l33 48l4 -2c0 -1 -3 -7 -3 -8c0 -9 38 -29 71 -29c35 0 57 20 57 46c0 24 -21 44 -63 44c-13 0 -17 -3 -18 -12h-6v57z" />
    <glyph glyph-name="twosuperior" unicode="&#xb2;" horiz-adv-x="240" 
d="M221 225h-7c-2 9 -3 11 -8 11h-168c-6 0 -7 -1 -9 -11h-7c4 63 25 91 92 131c32 19 53 33 53 59c0 20 -15 44 -49 44s-61 -31 -61 -36c0 -2 2 -7 5 -10l-5 -5l-42 40l5 5c5 -4 8 -6 10 -6c8 0 33 44 91 44c50 0 89 -31 89 -72c0 -33 -12 -51 -71 -85
c-42 -24 -59 -40 -71 -66h138c5 0 7 7 8 12h7v-55z" />
    <glyph glyph-name="registered" unicode="&#xae;" horiz-adv-x="540" 
d="M160 101v270h107c90 0 101 -48 101 -73c0 -30 -21 -73 -77 -76v-2c16 -4 29 -14 63 -67l33 -52h-54l-24 42c-33 58 -45 73 -80 73h-24v-115h-45zM205 334v-81h51c37 0 67 7 67 41c0 24 -15 40 -70 40h-48zM270 450c-116 0 -211 -94 -211 -210s95 -211 211 -211
s210 95 210 211s-94 210 -210 210zM269 491c139 0 252 -112 252 -251s-113 -252 -252 -252s-251 112 -251 251s112 252 251 252z" />
    <glyph glyph-name="minus" unicode="&#x2212;" horiz-adv-x="557" 
d="M476 264h-395v60h395v-60z" />
    <glyph glyph-name="eth" unicode="&#xf0;" horiz-adv-x="510" 
d="M76 156h-44c-7 0 -11 -7 -15 -24h-9v99h9c4 -17 8 -24 15 -24h44v131c0 9 -11 12 -24 15v9h246c113 0 185 -71 185 -182c0 -110 -72 -180 -185 -180h-246v9c17 3 24 8 24 15v132zM149 156v-105h143c71 0 113 48 113 130c0 84 -43 130 -123 130h-133v-104h110
c7 0 11 7 15 24h9v-99h-9c-4 17 -8 24 -15 24h-110z" />
    <glyph glyph-name="multiply" unicode="&#xd7;" horiz-adv-x="557" 
d="M498 140l-48 -44l-171 155l-171 -156l-49 45l171 154l-167 153l48 44l168 -152l169 152l47 -44l-168 -153z" />
    <glyph glyph-name="threesuperior" unicode="&#xb3;" horiz-adv-x="240" 
d="M93 397h6c3 -12 6 -13 17 -13c33 0 54 14 54 37c0 19 -18 38 -50 38c-39 0 -54 -26 -54 -27c0 -2 4 -7 7 -10l-4 -4l-47 41l3 3c5 -3 8 -4 10 -4c6 -1 33 33 92 33c48 0 84 -29 84 -68c0 -23 -10 -38 -37 -54c34 -17 47 -35 47 -62c0 -44 -42 -77 -97 -77
c-49 0 -84 27 -90 27c-3 0 -7 -2 -11 -6l-5 2l33 48l4 -2c0 -1 -3 -7 -3 -8c0 -9 38 -29 71 -29c35 0 57 20 57 46c0 24 -21 44 -63 44c-13 0 -17 -3 -18 -12h-6v57z" />
    <glyph glyph-name="copyright" unicode="&#xa9;" horiz-adv-x="540" 
d="M352 199l40 -12c-15 -63 -69 -91 -121 -91c-77 0 -132 52 -132 143c0 87 50 141 134 141c52 0 98 -24 114 -78l-40 -10c-19 51 -64 51 -76 51c-58 0 -87 -46 -87 -105c0 -71 39 -105 84 -105c21 0 69 9 84 66zM269 491c139 0 252 -112 252 -251s-113 -252 -252 -252
s-251 113 -251 252s112 251 251 251zM269 450c-116 0 -210 -94 -210 -210s94 -211 210 -211s211 95 211 211s-95 210 -211 210z" />
    <glyph glyph-name="Aacute" unicode="&#xc1;" horiz-adv-x="552" 
d="M354 197l-77 192l-81 -192h158zM206 470v9h150v-9c-9 -2 -16 -3 -24 -8l178 -434c5 -12 11 -19 29 -19v-9h-134v9c12 0 17 3 23 10l-44 106h-219l-48 -111c8 -4 14 -5 24 -5v-9h-128v9c17 0 20 1 27 7l190 446c-6 5 -13 7 -24 8zM274 645l-16 9v7h113v-9l-10 -3l-82 -108
l6 -6l-2 -8h-76l2 9l10 2z" />
    <glyph glyph-name="Acircumflex" unicode="&#xc2;" horiz-adv-x="552" 
d="M354 197l-77 192l-81 -192h158zM206 470v9h150v-9c-9 -2 -16 -3 -24 -8l178 -434c5 -12 11 -19 29 -19v-9h-134v9c12 0 17 3 23 10l-44 106h-219l-48 -111c8 -4 14 -5 24 -5v-9h-128v9c17 0 20 1 27 7l190 446c-6 5 -13 7 -24 8zM196 661h158v-9l-7 -3l92 -110l16 -3v-9
h-115v9l11 3l-89 78l-80 -78l16 -3v-9h-100v9l14 3l96 110l-12 3v9z" />
    <glyph glyph-name="Adieresis" unicode="&#xc4;" horiz-adv-x="552" 
d="M354 197l-77 192l-81 -192h158zM206 470v9h150v-9c-9 -2 -16 -3 -24 -8l178 -434c5 -12 11 -19 29 -19v-9h-134v9c12 0 17 3 23 10l-44 106h-219l-48 -111c8 -4 14 -5 24 -5v-9h-128v9c17 0 20 1 27 7l190 446c-6 5 -13 7 -24 8zM390 527c-26 0 -45 20 -45 45
c0 23 19 45 45 45c27 0 45 -22 45 -45c0 -25 -19 -45 -45 -45zM163 527c-26 0 -45 20 -45 45c0 23 19 45 45 45c27 0 45 -22 45 -45c0 -25 -19 -45 -45 -45z" />
    <glyph glyph-name="Agrave" unicode="&#xc0;" horiz-adv-x="552" 
d="M354 197l-77 192l-81 -192h158zM206 470v9h150v-9c-9 -2 -16 -3 -24 -8l178 -434c5 -12 11 -19 29 -19v-9h-134v9c12 0 17 3 23 10l-44 106h-219l-48 -111c8 -4 14 -5 24 -5v-9h-128v9c17 0 20 1 27 7l190 446c-6 5 -13 7 -24 8zM279 645l55 -107l10 -2l2 -9h-76l-2 8
l6 6l-82 108l-10 3v9h113v-7z" />
    <glyph glyph-name="Aring" unicode="&#xc5;" horiz-adv-x="552" 
d="M354 197l-77 192l-81 -192h158zM206 470v9h150v-9c-9 -2 -16 -3 -24 -8l178 -434c5 -12 11 -19 29 -19v-9h-134v9c12 0 17 3 23 10l-44 106h-219l-48 -111c8 -4 14 -5 24 -5v-9h-128v9c17 0 20 1 27 7l190 446c-6 5 -13 7 -24 8zM274 670c42 0 74 -31 74 -71
s-32 -72 -71 -72c-40 0 -71 32 -71 71c0 38 32 72 68 72zM278 634c-21 0 -37 -15 -37 -35s16 -36 36 -36c19 0 35 16 35 36c0 19 -16 35 -34 35z" />
    <glyph glyph-name="Atilde" unicode="&#xc3;" horiz-adv-x="552" 
d="M354 197l-77 192l-81 -192h158zM206 470v9h150v-9c-9 -2 -16 -3 -24 -8l178 -434c5 -12 11 -19 29 -19v-9h-134v9c12 0 17 3 23 10l-44 106h-219l-48 -111c8 -4 14 -5 24 -5v-9h-128v9c17 0 20 1 27 7l190 446c-6 5 -13 7 -24 8zM103 597l11 -10c47 35 68 44 95 44
c20 0 42 -6 80 -24c33 -16 49 -21 64 -21c18 0 41 9 61 24l-6 20l3 2l48 -65l-3 -4l-10 7c-49 -35 -72 -45 -97 -45c-18 0 -41 7 -78 25c-34 17 -50 22 -66 22c-19 0 -39 -8 -61 -24l6 -17l-5 -2l-45 64z" />
    <glyph glyph-name="Ccedilla" unicode="&#xc7;" horiz-adv-x="552" 
d="M262 -11c-114 16 -222 96 -222 249c0 150 106 253 258 253c60 0 121 -17 177 -48c12 -7 19 -10 23 -10s8 4 17 14l10 -5l-68 -109l-9 4c3 6 5 13 5 20c0 11 -65 62 -150 62c-101 0 -172 -74 -172 -179c0 -102 70 -180 163 -180c86 0 175 76 175 95c0 6 -4 11 -10 19l8 6
l75 -101l-10 -6c-8 8 -15 10 -19 10c-16 0 -79 -84 -198 -94c22 -13 46 -26 46 -62s-39 -65 -94 -65c-22 0 -45 7 -55 7c-5 0 -10 -4 -11 -14l-9 1l9 78l9 -1c1 -21 11 -28 41 -28c31 0 45 11 45 36c0 14 -6 36 -34 48z" />
    <glyph glyph-name="Eacute" unicode="&#xc9;" horiz-adv-x="510" 
d="M446 407h-273v-126h175c9 0 14 7 16 23h9v-120h-9c-1 19 -6 25 -20 25h-171v-137h281c8 0 11 5 16 24h9v-120h-9c-2 15 -8 24 -16 24h-389v9c19 4 24 7 24 16v429c0 9 -5 12 -24 16v9h391c7 0 9 8 12 16c1 2 0 4 2 8h9v-120h-9c-4 20 -7 24 -24 24zM263 645l-16 9v7h113
v-9l-10 -3l-82 -108l6 -6l-2 -8h-76l2 9l10 2z" />
    <glyph glyph-name="Ecircumflex" unicode="&#xca;" horiz-adv-x="510" 
d="M446 407h-273v-126h175c9 0 14 7 16 23h9v-120h-9c-1 19 -6 25 -20 25h-171v-137h281c8 0 11 5 16 24h9v-120h-9c-2 15 -8 24 -16 24h-389v9c19 4 24 7 24 16v429c0 9 -5 12 -24 16v9h391c7 0 9 8 12 16c1 2 0 4 2 8h9v-120h-9c-4 20 -7 24 -24 24zM175 661h158v-9l-7 -3
l92 -110l16 -3v-9h-115v9l11 3l-89 78l-80 -78l16 -3v-9h-100v9l14 3l96 110l-12 3v9z" />
    <glyph glyph-name="Edieresis" unicode="&#xcb;" horiz-adv-x="510" 
d="M446 407h-273v-126h175c9 0 14 7 16 23h9v-120h-9c-1 19 -6 25 -20 25h-171v-137h281c8 0 11 5 16 24h9v-120h-9c-2 15 -8 24 -16 24h-389v9c19 4 24 7 24 16v429c0 9 -5 12 -24 16v9h391c7 0 9 8 12 16c1 2 0 4 2 8h9v-120h-9c-4 20 -7 24 -24 24zM369 527
c-26 0 -45 20 -45 45c0 23 19 45 45 45c27 0 45 -22 45 -45c0 -25 -19 -45 -45 -45zM142 527c-26 0 -45 20 -45 45c0 23 19 45 45 45c27 0 45 -22 45 -45c0 -25 -19 -45 -45 -45z" />
    <glyph glyph-name="Egrave" unicode="&#xc8;" horiz-adv-x="510" 
d="M446 407h-273v-126h175c9 0 14 7 16 23h9v-120h-9c-1 19 -6 25 -20 25h-171v-137h281c8 0 11 5 16 24h9v-120h-9c-2 15 -8 24 -16 24h-389v9c19 4 24 7 24 16v429c0 9 -5 12 -24 16v9h391c7 0 9 8 12 16c1 2 0 4 2 8h9v-120h-9c-4 20 -7 24 -24 24zM268 645l55 -107
l10 -2l2 -9h-76l-2 8l6 6l-82 108l-10 3v9h113v-7z" />
    <glyph glyph-name="Iacute" unicode="&#xcd;" horiz-adv-x="302" 
d="M217 479v-9c-18 -3 -24 -7 -24 -16v-430c0 -8 5 -12 24 -15v-9h-132v9c18 3 24 6 24 15v430c0 9 -5 12 -24 16v9h132zM149 645l-16 9v7h113v-9l-10 -3l-82 -108l6 -6l-2 -8h-76l2 9l10 2z" />
    <glyph glyph-name="Icircumflex" unicode="&#xce;" horiz-adv-x="302" 
d="M217 479v-9c-18 -3 -24 -7 -24 -16v-430c0 -8 5 -12 24 -15v-9h-132v9c18 3 24 6 24 15v430c0 9 -5 12 -24 16v9h132zM71 661h158v-9l-7 -3l92 -110l16 -3v-9h-115v9l11 3l-89 78l-80 -78l16 -3v-9h-100v9l14 3l96 110l-12 3v9z" />
    <glyph glyph-name="Idieresis" unicode="&#xcf;" horiz-adv-x="302" 
d="M217 479v-9c-18 -3 -24 -7 -24 -16v-430c0 -8 5 -12 24 -15v-9h-132v9c18 3 24 6 24 15v430c0 9 -5 12 -24 16v9h132zM265 527c-26 0 -45 20 -45 45c0 23 19 45 45 45c27 0 45 -22 45 -45c0 -25 -19 -45 -45 -45zM38 527c-26 0 -45 20 -45 45c0 23 19 45 45 45
c27 0 45 -22 45 -45c0 -25 -19 -45 -45 -45z" />
    <glyph glyph-name="Igrave" unicode="&#xcc;" horiz-adv-x="302" 
d="M217 479v-9c-18 -3 -24 -7 -24 -16v-430c0 -8 5 -12 24 -15v-9h-132v9c18 3 24 6 24 15v430c0 9 -5 12 -24 16v9h132zM154 645l55 -107l10 -2l2 -9h-76l-2 8l6 6l-82 108l-10 3v9h113v-7z" />
    <glyph glyph-name="Ntilde" unicode="&#xd1;" horiz-adv-x="604" 
d="M412 0v9c20 3 21 4 23 8l-279 348v-339c0 -9 6 -13 24 -17v-9h-121v9c19 4 24 7 24 16v429c0 9 -5 12 -24 16v9h147v-9c-13 0 -19 -2 -22 -6l264 -332v322c0 9 -4 12 -24 16v9h121v-9c-19 -4 -24 -7 -24 -16v-429c0 -9 5 -12 24 -16v-9h-133zM129 597l11 -10
c47 35 68 44 95 44c20 0 42 -6 80 -24c33 -16 49 -21 64 -21c18 0 41 9 61 24l-6 20l3 2l48 -65l-3 -4l-10 7c-49 -35 -72 -45 -97 -45c-18 0 -41 7 -78 25c-34 17 -50 22 -66 22c-19 0 -39 -8 -61 -24l6 -17l-5 -2l-45 64z" />
    <glyph glyph-name="Oacute" unicode="&#xd3;" horiz-adv-x="604" 
d="M302 419c-121 0 -179 -74 -179 -179s58 -180 179 -180s179 75 179 180s-58 179 -179 179zM302 491c181 0 270 -126 270 -251s-89 -252 -270 -252s-270 127 -270 252s89 251 270 251zM300 645l-16 9v7h113v-9l-10 -3l-82 -108l6 -6l-2 -8h-76l2 9l10 2z" />
    <glyph glyph-name="Ocircumflex" unicode="&#xd4;" horiz-adv-x="604" 
d="M302 419c-121 0 -179 -74 -179 -179s58 -180 179 -180s179 75 179 180s-58 179 -179 179zM302 491c181 0 270 -126 270 -251s-89 -252 -270 -252s-270 127 -270 252s89 251 270 251zM222 661h158v-9l-7 -3l92 -110l16 -3v-9h-115v9l11 3l-89 78l-80 -78l16 -3v-9h-100v9
l14 3l96 110l-12 3v9z" />
    <glyph glyph-name="Odieresis" unicode="&#xd6;" horiz-adv-x="604" 
d="M302 419c-121 0 -179 -74 -179 -179s58 -180 179 -180s179 75 179 180s-58 179 -179 179zM302 491c181 0 270 -126 270 -251s-89 -252 -270 -252s-270 127 -270 252s89 251 270 251zM416 527c-26 0 -45 20 -45 45c0 23 19 45 45 45c27 0 45 -22 45 -45
c0 -25 -19 -45 -45 -45zM189 527c-26 0 -45 20 -45 45c0 23 19 45 45 45c27 0 45 -22 45 -45c0 -25 -19 -45 -45 -45z" />
    <glyph glyph-name="Ograve" unicode="&#xd2;" horiz-adv-x="604" 
d="M302 419c-121 0 -179 -74 -179 -179s58 -180 179 -180s179 75 179 180s-58 179 -179 179zM302 491c181 0 270 -126 270 -251s-89 -252 -270 -252s-270 127 -270 252s89 251 270 251zM305 645l55 -107l10 -2l2 -9h-76l-2 8l6 6l-82 108l-10 3v9h113v-7z" />
    <glyph glyph-name="Otilde" unicode="&#xd5;" horiz-adv-x="604" 
d="M302 419c-121 0 -179 -74 -179 -179s58 -180 179 -180s179 75 179 180s-58 179 -179 179zM302 491c181 0 270 -126 270 -251s-89 -252 -270 -252s-270 127 -270 252s89 251 270 251zM129 597l11 -10c47 35 68 44 95 44c20 0 42 -6 80 -24c33 -16 49 -21 64 -21
c18 0 41 9 61 24l-6 20l3 2l48 -65l-3 -4l-10 7c-49 -35 -72 -45 -97 -45c-18 0 -41 7 -78 25c-34 17 -50 22 -66 22c-19 0 -39 -8 -61 -24l6 -17l-5 -2l-45 64z" />
    <glyph glyph-name="Scaron" unicode="&#x160;" horiz-adv-x="510" 
d="M423 349l-9 4c2 6 3 10 3 15c0 18 -96 51 -174 51c-77 0 -129 -28 -129 -69c0 -48 60 -54 164 -61c146 -10 202 -54 202 -153c0 -77 -75 -148 -211 -148c-60 0 -123 13 -189 39c-14 5 -24 8 -27 8c-6 0 -12 -5 -20 -17l-9 4l52 112l9 -3c-2 -6 -2 -8 -2 -15
c0 -16 81 -56 185 -56c88 0 128 33 128 77c0 49 -47 62 -147 68c-159 9 -219 51 -219 134c0 89 83 152 215 152c59 0 127 -14 183 -37c7 -3 14 -6 16 -6c5 0 12 7 16 14l9 -3zM336 527h-158v9l7 3l-92 110l-16 3v9h115v-9l-11 -3l89 -78l80 78l-16 3v9h100v-9l-14 -3
l-96 -110l12 -3v-9z" />
    <glyph glyph-name="Uacute" unicode="&#xda;" horiz-adv-x="604" 
d="M542 479v-9c-19 -4 -24 -7 -24 -16v-289c0 -125 -60 -176 -216 -176s-217 51 -217 176v289c0 9 -5 12 -24 16v9h132v-9c-18 -3 -24 -7 -24 -16v-288c0 -70 20 -105 133 -105s132 35 132 104v289c0 9 -5 12 -24 16v9h132zM300 645l-16 9v7h113v-9l-10 -3l-82 -108l6 -6
l-2 -8h-76l2 9l10 2z" />
    <glyph glyph-name="Ucircumflex" unicode="&#xdb;" horiz-adv-x="604" 
d="M542 479v-9c-19 -4 -24 -7 -24 -16v-289c0 -125 -60 -176 -216 -176s-217 51 -217 176v289c0 9 -5 12 -24 16v9h132v-9c-18 -3 -24 -7 -24 -16v-288c0 -70 20 -105 133 -105s132 35 132 104v289c0 9 -5 12 -24 16v9h132zM222 661h158v-9l-7 -3l92 -110l16 -3v-9h-115v9
l11 3l-89 78l-80 -78l16 -3v-9h-100v9l14 3l96 110l-12 3v9z" />
    <glyph glyph-name="Udieresis" unicode="&#xdc;" horiz-adv-x="604" 
d="M542 479v-9c-19 -4 -24 -7 -24 -16v-289c0 -125 -60 -176 -216 -176s-217 51 -217 176v289c0 9 -5 12 -24 16v9h132v-9c-18 -3 -24 -7 -24 -16v-288c0 -70 20 -105 133 -105s132 35 132 104v289c0 9 -5 12 -24 16v9h132zM416 527c-26 0 -45 20 -45 45c0 23 19 45 45 45
c27 0 45 -22 45 -45c0 -25 -19 -45 -45 -45zM189 527c-26 0 -45 20 -45 45c0 23 19 45 45 45c27 0 45 -22 45 -45c0 -25 -19 -45 -45 -45z" />
    <glyph glyph-name="Ugrave" unicode="&#xd9;" horiz-adv-x="604" 
d="M542 479v-9c-19 -4 -24 -7 -24 -16v-289c0 -125 -60 -176 -216 -176s-217 51 -217 176v289c0 9 -5 12 -24 16v9h132v-9c-18 -3 -24 -7 -24 -16v-288c0 -70 20 -105 133 -105s132 35 132 104v289c0 9 -5 12 -24 16v9h132zM305 645l55 -107l10 -2l2 -9h-76l-2 8l6 6
l-82 108l-10 3v9h113v-7z" />
    <glyph glyph-name="Yacute" unicode="&#xdd;" horiz-adv-x="604" 
d="M533 442l-192 -248v-169c0 -9 5 -12 24 -16v-9h-132v9c19 4 24 7 24 16v171l-195 263c-4 6 -7 7 -31 11v9h161v-9c-23 -2 -32 -8 -30 -12l143 -192l151 194c1 6 -12 9 -23 10v9h140v-9c-22 -5 -24 -7 -40 -28zM300 645l-16 9v7h113v-9l-10 -3l-82 -108l6 -6l-2 -8h-76
l2 9l10 2z" />
    <glyph glyph-name="Ydieresis" unicode="&#x178;" horiz-adv-x="604" 
d="M533 442l-192 -248v-169c0 -9 5 -12 24 -16v-9h-132v9c19 4 24 7 24 16v171l-195 263c-4 6 -7 7 -31 11v9h161v-9c-23 -2 -32 -8 -30 -12l143 -192l151 194c1 6 -12 9 -23 10v9h140v-9c-22 -5 -24 -7 -40 -28zM416 527c-26 0 -45 20 -45 45c0 23 19 45 45 45
c27 0 45 -22 45 -45c0 -25 -19 -45 -45 -45zM189 527c-26 0 -45 20 -45 45c0 23 19 45 45 45c27 0 45 -22 45 -45c0 -25 -19 -45 -45 -45z" />
    <glyph glyph-name="Zcaron" unicode="&#x17d;" horiz-adv-x="510" 
d="M44 383v120h9c7 -21 7 -24 27 -24h406l-314 -407h281c11 0 15 6 18 24h9v-120h-9c-7 19 -10 24 -20 24h-432l310 407h-256c-14 0 -19 -8 -20 -24h-9zM336 527h-158v9l7 3l-92 110l-16 3v9h115v-9l-11 -3l89 -78l80 78l-16 3v9h100v-9l-14 -3l-96 -110l12 -3v-9z" />
    <glyph glyph-name="aacute" unicode="&#xe1;" 
d="M288 153l-63 140l-64 -140h127zM162 353v9h137v-9c-10 -1 -25 -7 -19 -19l143 -309c5 -10 8 -13 21 -16v-9h-110v9c16 5 15 9 13 16l-38 81h-171l-38 -81l-2 -7c0 -3 5 -6 16 -9v-9h-100v9c12 4 17 7 21 16l148 312c2 5 -5 12 -21 16zM214 505l-7 3v6h88v-6l-11 -3
l-65 -84l8 -6v-5h-60l1 6l7 5z" />
    <glyph glyph-name="acircumflex" unicode="&#xe2;" 
d="M288 153l-63 140l-64 -140h127zM162 353v9h137v-9c-10 -1 -25 -7 -19 -19l143 -309c5 -10 8 -13 21 -16v-9h-110v9c16 5 15 9 13 16l-38 81h-171l-38 -81l-2 -7c0 -3 5 -6 16 -9v-9h-100v9c12 4 17 7 21 16l148 312c2 5 -5 12 -21 16zM165 509v5h140v-5l-12 -5l90 -86
l14 -3v-5h-104v5l20 3l-94 57l-76 -58l18 -2v-5h-87v5l13 3l95 87z" />
    <glyph glyph-name="adieresis" unicode="&#xe4;" 
d="M288 153l-63 140l-64 -140h127zM162 353v9h137v-9c-10 -1 -25 -7 -19 -19l143 -309c5 -10 8 -13 21 -16v-9h-110v9c16 5 15 9 13 16l-38 81h-171l-38 -81l-2 -7c0 -3 5 -6 16 -9v-9h-100v9c12 4 17 7 21 16l148 312c2 5 -5 12 -21 16zM320 488c22 0 40 -17 40 -39
s-17 -39 -39 -39c-21 0 -39 17 -39 39c0 20 18 39 38 39zM137 488c23 0 41 -17 41 -39c0 -21 -18 -39 -39 -39c-22 0 -39 18 -39 39s17 39 37 39z" />
    <glyph glyph-name="agrave" unicode="&#xe0;" 
d="M288 153l-63 140l-64 -140h127zM162 353v9h137v-9c-10 -1 -25 -7 -19 -19l143 -309c5 -10 8 -13 21 -16v-9h-110v9c16 5 15 9 13 16l-38 81h-171l-38 -81l-2 -7c0 -3 5 -6 16 -9v-9h-100v9c12 4 17 7 21 16l148 312c2 5 -5 12 -21 16zM247 505l39 -84l8 -6v-5h-60v5l8 6
l-65 84l-11 3v6h88v-6z" />
    <glyph glyph-name="aring" unicode="&#xe5;" 
d="M288 153l-63 140l-64 -140h127zM162 353v9h137v-9c-10 -1 -25 -7 -19 -19l143 -309c5 -10 8 -13 21 -16v-9h-110v9c16 5 15 9 13 16l-38 81h-171l-38 -81l-2 -7c0 -3 5 -6 16 -9v-9h-100v9c12 4 17 7 21 16l148 312c2 5 -5 12 -21 16zM229 517c31 0 55 -23 55 -53
s-24 -54 -54 -54c-29 0 -53 24 -53 53s24 54 52 54zM231 490c-16 0 -27 -11 -27 -26s12 -27 27 -27c14 0 26 12 26 27c0 14 -13 26 -26 26z" />
    <glyph glyph-name="atilde" unicode="&#xe3;" 
d="M288 153l-63 140l-64 -140h127zM162 353v9h137v-9c-10 -1 -25 -7 -19 -19l143 -309c5 -10 8 -13 21 -16v-9h-110v9c16 5 15 9 13 16l-38 81h-171l-38 -81l-2 -7c0 -3 5 -6 16 -9v-9h-100v9c12 4 17 7 21 16l148 312c2 5 -5 12 -21 16zM81 462l12 -7c32 24 49 31 71 31
c15 0 28 -3 57 -15c38 -16 60 -21 83 -21c20 0 34 5 52 16l-1 13l6 3l20 -55l-6 -3l-8 8c-29 -17 -43 -22 -65 -22c-23 0 -45 6 -85 22c-29 12 -41 14 -54 14c-17 0 -33 -6 -52 -21l5 -13l-6 -3l-34 50z" />
    <glyph glyph-name="ccedilla" unicode="&#xe7;" 
d="M202 -5c-51 4 -168 59 -168 184c0 93 78 191 210 191c93 0 152 -45 157 -45s11 6 18 11l9 -5l-54 -79l-9 5c6 17 3 24 -8 30c-19 10 -61 29 -107 29c-92 0 -138 -58 -138 -134c0 -91 69 -136 137 -136c54 0 130 37 130 58c0 5 -2 10 -5 16l8 7l60 -79l-8 -5
c-11 7 -8 9 -19 9c-20 0 -57 -52 -147 -57c30 -23 45 -36 45 -58c0 -42 -51 -63 -98 -63c-34 0 -52 8 -60 8c-6 0 -8 -3 -12 -8h-5l13 50l5 -1c-1 -18 28 -19 40 -19c36 0 58 17 58 39c0 29 -24 41 -52 52z" />
    <glyph glyph-name="eacute" unicode="&#xe9;" 
d="M145 160v-109h260c8 0 12 7 16 24h9v-99h-9c-4 17 -8 24 -16 24h-357v9c17 4 24 9 24 16v312c0 8 -7 12 -24 16v9h357c7 0 12 7 16 24h9v-99h-9c-5 17 -9 24 -16 24h-260v-100h164c7 0 11 7 15 24h9v-99h-9c-4 17 -8 24 -15 24h-164zM251 505l-7 3v6h88v-6l-11 -3
l-65 -84l8 -6v-5h-60l1 6l7 5z" />
    <glyph glyph-name="ecircumflex" unicode="&#xea;" 
d="M145 160v-109h260c8 0 12 7 16 24h9v-99h-9c-4 17 -8 24 -16 24h-357v9c17 4 24 9 24 16v312c0 8 -7 12 -24 16v9h357c7 0 12 7 16 24h9v-99h-9c-5 17 -9 24 -16 24h-260v-100h164c7 0 11 7 15 24h9v-99h-9c-4 17 -8 24 -15 24h-164zM170 509v5h140v-5l-12 -5l90 -86
l14 -3v-5h-104v5l20 3l-94 57l-76 -58l18 -2v-5h-87v5l13 3l95 87z" />
    <glyph glyph-name="edieresis" unicode="&#xeb;" 
d="M145 160v-109h260c8 0 12 7 16 24h9v-99h-9c-4 17 -8 24 -16 24h-357v9c17 4 24 9 24 16v312c0 8 -7 12 -24 16v9h357c7 0 12 7 16 24h9v-99h-9c-5 17 -9 24 -16 24h-260v-100h164c7 0 11 7 15 24h9v-99h-9c-4 17 -8 24 -15 24h-164zM331 488c22 0 40 -17 40 -39
s-17 -39 -39 -39c-21 0 -39 17 -39 39c0 20 18 39 38 39zM148 488c23 0 41 -17 41 -39c0 -21 -18 -39 -39 -39c-22 0 -39 18 -39 39s17 39 37 39z" />
    <glyph glyph-name="egrave" unicode="&#xe8;" 
d="M145 160v-109h260c8 0 12 7 16 24h9v-99h-9c-4 17 -8 24 -16 24h-357v9c17 4 24 9 24 16v312c0 8 -7 12 -24 16v9h357c7 0 12 7 16 24h9v-99h-9c-5 17 -9 24 -16 24h-260v-100h164c7 0 11 7 15 24h9v-99h-9c-4 17 -8 24 -15 24h-164zM242 505l39 -84l8 -6v-5h-60v5l8 6
l-65 84l-11 3v6h88v-6z" />
    <glyph glyph-name="iacute" unicode="&#xed;" horiz-adv-x="250" 
d="M186 362v-9c-17 -4 -24 -8 -24 -16v-312c0 -7 7 -12 24 -16v-9h-121v9c18 4 24 9 24 16v312c0 8 -7 12 -24 16v9h121zM112 505l-7 3v6h88v-6l-11 -3l-65 -84l8 -6v-5h-60l1 6l7 5z" />
    <glyph glyph-name="icircumflex" unicode="&#xee;" horiz-adv-x="250" 
d="M186 362v-9c-17 -4 -24 -8 -24 -16v-312c0 -7 7 -12 24 -16v-9h-121v9c18 4 24 9 24 16v312c0 8 -7 12 -24 16v9h121zM63 509v5h140v-5l-12 -5l90 -86l14 -3v-5h-104v5l20 3l-94 57l-76 -58l18 -2v-5h-87v5l13 3l95 87z" />
    <glyph glyph-name="idieresis" unicode="&#xef;" horiz-adv-x="250" 
d="M186 362v-9c-17 -4 -24 -8 -24 -16v-312c0 -7 7 -12 24 -16v-9h-121v9c18 4 24 9 24 16v312c0 8 -7 12 -24 16v9h121zM215 488c22 0 40 -17 40 -39s-17 -39 -39 -39c-21 0 -39 17 -39 39c0 20 18 39 38 39zM32 488c23 0 41 -17 41 -39c0 -21 -18 -39 -39 -39
c-22 0 -39 18 -39 39s17 39 37 39z" />
    <glyph glyph-name="igrave" unicode="&#xec;" horiz-adv-x="250" 
d="M186 362v-9c-17 -4 -24 -8 -24 -16v-312c0 -7 7 -12 24 -16v-9h-121v9c18 4 24 9 24 16v312c0 8 -7 12 -24 16v9h121zM139 505l39 -84l8 -6v-5h-60v5l8 6l-65 84l-11 3v6h88v-6z" />
    <glyph glyph-name="ntilde" unicode="&#xf1;" horiz-adv-x="510" 
d="M363 25l-235 253v-253c0 -7 7 -12 24 -16v-9h-102v9c17 4 24 9 24 16v312c0 8 -7 12 -24 16v9h141v-9c-15 -4 -31 -10 -26 -16l217 -232v232c0 8 -7 12 -24 16v9h102v-9c-17 -4 -24 -8 -24 -16v-312c0 -7 7 -12 24 -16v-9h-109v9c9 3 14 6 14 10c0 2 -1 4 -2 6zM107 462
l12 -7c32 24 49 31 71 31c15 0 28 -3 57 -15c38 -16 60 -21 83 -21c20 0 34 5 52 16l-1 13l6 3l20 -55l-6 -3l-8 8c-29 -17 -43 -22 -65 -22c-23 0 -45 6 -85 22c-29 12 -41 14 -54 14c-17 0 -33 -6 -52 -21l5 -13l-6 -3l-34 50z" />
    <glyph glyph-name="oacute" unicode="&#xf3;" 
d="M234 316c-78 0 -131 -55 -131 -136c0 -79 52 -134 126 -134c75 0 125 55 125 134c0 78 -51 136 -120 136zM222 370c127 0 210 -74 210 -189c0 -113 -82 -189 -205 -189c-121 0 -202 74 -202 185c0 109 86 193 197 193zM206 505l-7 3v6h88v-6l-11 -3l-65 -84l8 -6v-5h-60
l1 6l7 5z" />
    <glyph glyph-name="ocircumflex" unicode="&#xf4;" 
d="M234 316c-78 0 -131 -55 -131 -136c0 -79 52 -134 126 -134c75 0 125 55 125 134c0 78 -51 136 -120 136zM222 370c127 0 210 -74 210 -189c0 -113 -82 -189 -205 -189c-121 0 -202 74 -202 185c0 109 86 193 197 193zM167 509v5h140v-5l-12 -5l90 -86l14 -3v-5h-104v5
l20 3l-94 57l-76 -58l18 -2v-5h-87v5l13 3l95 87z" />
    <glyph glyph-name="odieresis" unicode="&#xf6;" 
d="M234 316c-78 0 -131 -55 -131 -136c0 -79 52 -134 126 -134c75 0 125 55 125 134c0 78 -51 136 -120 136zM222 370c127 0 210 -74 210 -189c0 -113 -82 -189 -205 -189c-121 0 -202 74 -202 185c0 109 86 193 197 193zM319 488c22 0 40 -17 40 -39s-17 -39 -39 -39
c-21 0 -39 17 -39 39c0 20 18 39 38 39zM136 488c23 0 41 -17 41 -39c0 -21 -18 -39 -39 -39c-22 0 -39 18 -39 39s17 39 37 39z" />
    <glyph glyph-name="ograve" unicode="&#xf2;" 
d="M244 505l39 -84l8 -6v-5h-60v5l8 6l-65 84l-11 3v6h88v-6zM234 316c-78 0 -131 -55 -131 -136c0 -79 52 -134 126 -134c75 0 125 55 125 134c0 78 -51 136 -120 136zM222 370c127 0 210 -74 210 -189c0 -113 -82 -189 -205 -189c-121 0 -202 74 -202 185
c0 109 86 193 197 193z" />
    <glyph glyph-name="otilde" unicode="&#xf5;" 
d="M234 316c-78 0 -131 -55 -131 -136c0 -79 52 -134 126 -134c75 0 125 55 125 134c0 78 -51 136 -120 136zM222 370c127 0 210 -74 210 -189c0 -113 -82 -189 -205 -189c-121 0 -202 74 -202 185c0 109 86 193 197 193zM81 462l12 -7c32 24 49 31 71 31c15 0 28 -3 57 -15
c38 -16 60 -21 83 -21c20 0 34 5 52 16l-1 13l6 3l20 -55l-6 -3l-8 8c-29 -17 -43 -22 -65 -22c-23 0 -45 6 -85 22c-29 12 -41 14 -54 14c-17 0 -33 -6 -52 -21l5 -13l-6 -3l-34 50z" />
    <glyph glyph-name="scaron" unicode="&#x161;" 
d="M81 109l9 -4c-1 -6 -1 -13 -1 -16c0 -19 81 -46 145 -46c82 0 116 29 116 60c0 33 -33 48 -123 53c-61 3 -177 8 -177 100c0 59 54 114 172 114c48 0 99 -10 137 -25l15 -6c4 -2 9 -5 12 -5c6 0 10 4 16 13l8 -4l-44 -79l-8 3c1 4 2 6 2 9c0 7 -3 11 -9 15
c-32 17 -82 28 -128 28c-66 0 -109 -22 -109 -55c0 -27 26 -37 105 -42c136 -9 195 -43 195 -112s-69 -118 -167 -118c-53 0 -115 14 -160 31l-18 7c-2 2 -4 2 -6 2c-6 0 -9 -2 -15 -10l-9 5zM290 415v-5h-140v5l12 5l-90 86l-14 3v5h104v-5l-20 -3l94 -57l76 58l-18 2v5h87
v-5l-13 -3l-95 -87z" />
    <glyph glyph-name="uacute" unicode="&#xfa;" 
d="M428 362v-9c-17 -4 -24 -8 -24 -16v-202c0 -103 -56 -143 -184 -143c-118 0 -167 43 -167 143v202c0 8 -7 12 -24 16v9h121v-9c-18 -4 -24 -8 -24 -16v-206c0 -62 27 -85 107 -85c64 0 98 27 98 80v211c0 8 -7 12 -24 16v9h121zM229 505l-7 3v6h88v-6l-11 -3l-65 -84
l8 -6v-5h-60l1 6l7 5z" />
    <glyph glyph-name="ucircumflex" unicode="&#xfb;" 
d="M428 362v-9c-17 -4 -24 -8 -24 -16v-202c0 -103 -56 -143 -184 -143c-118 0 -167 43 -167 143v202c0 8 -7 12 -24 16v9h121v-9c-18 -4 -24 -8 -24 -16v-206c0 -62 27 -85 107 -85c64 0 98 27 98 80v211c0 8 -7 12 -24 16v9h121zM165 509v5h140v-5l-12 -5l90 -86l14 -3v-5
h-104v5l20 3l-94 57l-76 -58l18 -2v-5h-87v5l13 3l95 87z" />
    <glyph glyph-name="udieresis" unicode="&#xfc;" 
d="M428 362v-9c-17 -4 -24 -8 -24 -16v-202c0 -103 -56 -143 -184 -143c-118 0 -167 43 -167 143v202c0 8 -7 12 -24 16v9h121v-9c-18 -4 -24 -8 -24 -16v-206c0 -62 27 -85 107 -85c64 0 98 27 98 80v211c0 8 -7 12 -24 16v9h121zM318 488c22 0 40 -17 40 -39
s-17 -39 -39 -39c-21 0 -39 17 -39 39c0 20 18 39 38 39zM135 488c23 0 41 -17 41 -39c0 -21 -18 -39 -39 -39c-22 0 -39 18 -39 39s17 39 37 39z" />
    <glyph glyph-name="ugrave" unicode="&#xf9;" 
d="M428 362v-9c-17 -4 -24 -8 -24 -16v-202c0 -103 -56 -143 -184 -143c-118 0 -167 43 -167 143v202c0 8 -7 12 -24 16v9h121v-9c-18 -4 -24 -8 -24 -16v-206c0 -62 27 -85 107 -85c64 0 98 27 98 80v211c0 8 -7 12 -24 16v9h121zM228 505l39 -84l8 -6v-5h-60v5l8 6l-65 84
l-11 3v6h88v-6z" />
    <glyph glyph-name="yacute" unicode="&#xfd;" 
d="M415 338l-150 -185v-129c0 -7 7 -11 24 -15v-9h-121v9c17 4 24 8 24 15v127l-151 186c-6 8 -13 13 -25 16v9h130l1 -9c-24 -6 -22 -13 -20 -16l108 -133l109 134c2 4 2 11 -19 16v8h117v-8c-15 -5 -21 -8 -27 -16zM225 505l-7 3v6h88v-6l-11 -3l-65 -84l8 -6v-5h-60l1 6
l7 5z" />
    <glyph glyph-name="ydieresis" unicode="&#xff;" 
d="M415 338l-150 -185v-129c0 -7 7 -11 24 -15v-9h-121v9c17 4 24 8 24 15v127l-151 186c-6 8 -13 13 -25 16v9h130l1 -9c-24 -6 -22 -13 -20 -16l108 -133l109 134c2 4 2 11 -19 16v8h117v-8c-15 -5 -21 -8 -27 -16zM319 488c22 0 40 -17 40 -39s-17 -39 -39 -39
c-21 0 -39 17 -39 39c0 20 18 39 38 39zM136 488c23 0 41 -17 41 -39c0 -21 -18 -39 -39 -39c-22 0 -39 18 -39 39s17 39 37 39z" />
    <glyph glyph-name="zcaron" unicode="&#x17e;" 
d="M29 0l271 311h-233c-7 0 -11 -8 -15 -24h-9v99h9c4 -17 6 -24 13 -24h363l-268 -311h243c7 0 11 7 15 24h9v-99h-9c-4 17 -8 24 -15 24h-374zM297 415v-5h-140v5l12 5l-90 86l-14 3v5h104v-5l-20 -3l94 -57l76 58l-18 2v5h87v-5l-13 -3l-95 -87z" />
    <glyph glyph-name="uni00A0" unicode="&#xa0;" horiz-adv-x="203" 
 />
    <glyph glyph-name="uni00AD" unicode="&#xad;" horiz-adv-x="354" 
d="M51 129v74h252v-74h-252z" />
    <glyph glyph-name="uni02C9" unicode="&#x2c9;" horiz-adv-x="333" 
d="M11 527v63h311v-63h-311z" />
    <glyph glyph-name="uni03A9" unicode="&#x3a9;" horiz-adv-x="598" 
d="M546 0h-189v59c49 49 108 129 108 277c0 145 -59 244 -164 244c-111 0 -169 -106 -169 -244c0 -143 53 -225 110 -277v-59h-189v59h121c-48 45 -123 134 -123 289c0 165 101 293 253 293c148 0 242 -116 242 -292c0 -139 -63 -235 -121 -290h121v-59z" />
    <glyph glyph-name="uni03BC" unicode="&#x3bc;" horiz-adv-x="442" 
d="M375 382v-382h-65v45h-2c-20 -37 -44 -53 -84 -53c-35 0 -60 13 -82 46h-1v-184h-71v528h71v-211c0 -83 33 -122 79 -122c53 0 84 45 84 120v213h71z" />
    <glyph glyph-name="pi" unicode="&#x3c0;" horiz-adv-x="472" 
d="M449 55l15 -49c-15 -7 -37 -12 -61 -12c-84 0 -110 59 -110 116v285h-107v-271c0 -54 -5 -95 -13 -124h-78c10 38 13 81 13 128v267c-21 0 -59 -7 -79 -16c-9 20 -13 29 -22 49c22 10 62 22 125 22h328v-55h-89v-277c0 -40 12 -70 51 -70c11 0 18 2 27 7z" />
    <glyph glyph-name="Euro" unicode="&#x20ac;" horiz-adv-x="406" 
d="M0 226h31c0 7 -1 13 -1 20c0 10 1 21 2 32h-40l9 38h38c21 86 92 174 192 174c71 0 135 -46 140 -46c4 0 9 4 13 9l6 -3l-56 -87l-5 3c2 6 6 13 6 18c-7 6 -52 42 -105 42c-43 0 -101 -20 -117 -110h243l-9 -38h-238c-1 -12 -2 -25 -2 -38v-14h228l-9 -38h-216
c10 -83 58 -132 121 -132c53 0 98 36 105 42c0 5 -4 12 -7 18l6 3l55 -87l-5 -3c-4 5 -9 9 -13 9c-5 0 -70 -47 -140 -47c-104 0 -180 95 -197 197h-42z" />
    <glyph glyph-name="litre" unicode="&#x2113;" horiz-adv-x="410" 
d="M355 40c-26 -25 -62 -51 -108 -51c-31 0 -54 8 -71 24c-24 21 -38 60 -38 108v104c-17 -19 -33 -37 -51 -56c-10 11 -21 22 -32 32c28 32 56 62 83 92v212c0 108 49 150 111 150c66 0 91 -50 91 -94c0 -86 -46 -163 -106 -241c-6 -9 -17 -22 -23 -30v-170
c0 -60 26 -79 51 -79s45 15 68 39c8 -14 16 -26 25 -40zM288 558c0 16 -5 45 -33 45c-21 0 -44 -13 -44 -95v-144c4 4 5 6 8 12c40 57 69 120 69 182z" />
    <glyph glyph-name="Omega" unicode="&#x2126;" horiz-adv-x="598" 
d="M546 0h-189v59c49 49 108 129 108 277c0 145 -59 244 -164 244c-111 0 -169 -106 -169 -244c0 -143 53 -225 110 -277v-59h-189v59h121c-48 45 -123 134 -123 289c0 165 101 293 253 293c148 0 242 -116 242 -292c0 -139 -63 -235 -121 -290h121v-59z" />
    <glyph glyph-name="estimated" unicode="&#x212e;" horiz-adv-x="594" 
d="M544 226h-388v-155c37 -33 84 -50 138 -50c74 0 138 32 182 103c12 -6 23 -13 35 -19c-57 -75 -119 -116 -217 -116c-153 0 -245 104 -245 236c0 133 92 236 243 236c158 0 244 -101 252 -235zM431 258v120c-40 38 -87 53 -140 53c-54 0 -98 -17 -135 -51v-122h275z" />
    <glyph glyph-name="partialdiff" unicode="&#x2202;" horiz-adv-x="465" 
d="M441 453c0 -47 -7 -113 -23 -182c-30 -125 -107 -279 -245 -279c-90 0 -149 62 -149 156c0 165 105 301 236 301c49 0 82 -25 98 -51h2c3 20 5 41 5 68c0 102 -44 134 -107 134c-23 0 -48 -7 -71 -19c-6 17 -11 34 -17 50c23 14 65 23 95 23c107 0 176 -61 176 -201z
M351 331c-14 43 -44 65 -88 65c-88 0 -162 -125 -162 -253c0 -64 32 -97 72 -97c83 0 146 114 178 285z" />
    <glyph glyph-name="Delta" unicode="&#x2206;" horiz-adv-x="469" 
d="M471 0h-473v35c63 198 126 396 189 595h99c61 -199 124 -397 185 -595v-35zM382 58c-46 150 -90 298 -135 447c-7 21 -10 38 -13 51h-3c-2 -12 -7 -32 -12 -50c-44 -150 -89 -298 -134 -448h297z" />
    <glyph glyph-name="product" unicode="&#x220f;" horiz-adv-x="575" 
d="M506 -208h-78v778h-281v-778h-78v838h437v-838z" />
    <glyph glyph-name="summation" unicode="&#x2211;" horiz-adv-x="513" 
d="M475 -208h-438v33c84 131 167 260 251 390c-77 126 -153 251 -230 378v37h395v-59h-309c72 -117 146 -235 219 -353c-79 -123 -158 -246 -236 -367h348v-59z" />
    <glyph glyph-name="uni2215" unicode="&#x2215;" horiz-adv-x="286" 
d="M-44 -37l327 528h48l-327 -528h-48z" />
    <glyph glyph-name="uni2219" unicode="&#x2219;" horiz-adv-x="250" 
d="M125 289c28 0 50 -22 50 -50s-22 -50 -50 -50s-50 22 -50 50s22 50 50 50z" />
    <glyph glyph-name="radical" unicode="&#x221a;" horiz-adv-x="365" 
d="M374 655c-45 -222 -89 -444 -133 -666h-72c-34 100 -68 201 -102 302c-15 -8 -31 -16 -46 -23c-10 13 -19 27 -29 42c38 20 77 40 115 61c33 -96 64 -190 96 -286c38 190 75 380 112 570h59z" />
    <glyph glyph-name="infinity" unicode="&#x221e;" horiz-adv-x="614" 
d="M575 264c0 -76 -60 -133 -130 -133c-65 0 -113 39 -138 82h-2c-28 -42 -72 -82 -130 -82c-70 0 -137 48 -137 130s64 130 135 130c74 0 117 -51 133 -80h2c21 34 64 80 133 80c73 0 134 -52 134 -127zM509 265c0 43 -27 74 -73 74c-42 0 -69 -28 -100 -76
c27 -52 62 -79 98 -79c48 0 75 36 75 81zM277 263c-22 40 -57 76 -98 76c-52 0 -75 -38 -75 -78c0 -45 31 -77 75 -77c46 0 78 41 98 79z" />
    <glyph glyph-name="integral" unicode="&#x222b;" horiz-adv-x="411" 
d="M340 613c-8 2 -22 6 -32 6c-41 0 -65 -29 -65 -81v-592c0 -79 -39 -141 -135 -141c-18 0 -43 4 -54 9c5 17 9 35 14 52c10 -2 16 -5 32 -5c44 0 66 28 66 80v592c0 80 44 141 138 141c19 0 44 -5 52 -9c-6 -17 -10 -35 -16 -52z" />
    <glyph glyph-name="approxequal" unicode="&#x2248;" horiz-adv-x="557" 
d="M492 418c-28 -44 -66 -77 -119 -77c-37 0 -73 11 -103 29c-27 16 -54 30 -84 30s-60 -26 -80 -60l-42 43c26 41 64 77 122 77c36 0 67 -11 100 -30c31 -18 55 -29 84 -29s59 24 80 60zM492 205c-28 -44 -66 -77 -119 -77c-37 0 -73 12 -103 30c-27 16 -54 29 -84 29
s-60 -25 -80 -60l-42 44c26 41 64 76 122 76c36 0 67 -10 100 -30c31 -18 55 -29 84 -29s59 24 80 60z" />
    <glyph glyph-name="notequal" unicode="&#x2260;" horiz-adv-x="557" 
d="M476 157h-230l-58 -121h-68l58 121h-97v60h125l73 153h-198v60h226l59 126h69l-60 -126h101v-60h-129l-73 -153h202v-60z" />
    <glyph glyph-name="lessequal" unicode="&#x2264;" horiz-adv-x="557" 
d="M476 0h-395v60h395v-60zM476 135l-395 187v43l395 187v-66l-308 -142v-2l308 -142v-65z" />
    <glyph glyph-name="greaterequal" unicode="&#x2265;" horiz-adv-x="557" 
d="M476 0h-395v60h395v-60zM476 323l-395 -188v66l308 142v2l-308 142v66l395 -188v-42z" />
    <glyph glyph-name="lozenge" unicode="&#x25ca;" horiz-adv-x="437" 
d="M386 315c-50 -105 -99 -210 -149 -315h-39c-49 105 -99 210 -147 314c48 106 98 211 147 316h39c50 -105 99 -210 149 -315zM326 315c-36 79 -73 156 -108 235c-36 -79 -72 -156 -107 -235c35 -79 71 -156 106 -235c36 79 72 156 109 235z" />
    </font>
</defs>
</svg>
